<svg width="20" height="21" viewBox="0 0 20 21" fill="none" xmlns="http://www.w3.org/2000/svg">
<g clip-path="url(#clip0_1_913)">
<path d="M16.9333 3.94655C15.6444 3.32433 14.2889 2.9021 12.8667 2.67988C12.8222 2.63544 12.8 2.63544 12.8 2.67988C12.6222 2.99099 12.4444 3.34655 12.2667 3.74655C10.7556 3.47988 9.24445 3.47988 7.73334 3.74655C7.55556 3.39099 7.37778 3.03544 7.2 2.67988C7.2 2.63544 7.17778 2.63544 7.13334 2.67988C5.71111 2.9021 4.35556 3.32433 3.06667 3.94655C1.82222 5.81322 0.955558 7.72433 0.466669 9.67988C0.0222246 11.4577 -0.111109 13.3465 0.066669 15.3465H0.133336C1.64445 16.5021 3.31111 17.3465 5.13334 17.8799C5.13334 17.8799 5.15556 17.8799 5.2 17.8799C5.55556 17.3465 5.88889 16.791 6.2 16.2132C6.2 16.1688 6.2 16.1465 6.2 16.1465H6.13334C5.6 15.9243 5.08889 15.6577 4.6 15.3465C4.55556 15.3465 4.55556 15.3243 4.6 15.2799L4.93334 15.0132H5C6.6 15.7688 8.26667 16.1465 10 16.1465C11.7333 16.1465 13.4 15.7688 15 15.0132C15.0444 15.0132 15.0667 15.0132 15.0667 15.0132L15.4 15.2799V15.3465C14.9111 15.6577 14.3778 15.9243 13.8 16.1465V16.2132C14.1111 16.791 14.4444 17.3465 14.8 17.8799C14.8444 17.8799 14.8667 17.8799 14.8667 17.8799C16.6889 17.3465 18.3556 16.5021 19.8667 15.3465H19.9333C20.3333 11.2132 19.3333 7.41322 16.9333 3.94655ZM6.66667 13.0799C6.17778 13.0799 5.75556 12.8799 5.4 12.4799C5.04445 12.0799 4.86667 11.6021 4.86667 11.0465C4.86667 10.491 5.04445 10.0132 5.4 9.61322C5.75556 9.21322 6.18889 9.01322 6.7 9.01322C7.21111 9.01322 7.63334 9.21322 7.96667 9.61322C8.3 10.0132 8.46667 10.491 8.46667 11.0465C8.46667 11.6021 8.28889 12.0799 7.93334 12.4799C7.57778 12.8799 7.15556 13.0799 6.66667 13.0799ZM13.3333 13.0799C12.8444 13.0799 12.4222 12.8799 12.0667 12.4799C11.7111 12.0799 11.5333 11.6021 11.5333 11.0465C11.5333 10.491 11.7111 10.0132 12.0667 9.61322C12.4222 9.21322 12.8444 9.01322 13.3333 9.01322C13.8222 9.01322 14.2444 9.21322 14.6 9.61322C14.9556 10.0132 15.1333 10.491 15.1333 11.0465C15.1333 11.6021 14.9556 12.0799 14.6 12.4799C14.2444 12.8799 13.8222 13.0799 13.3333 13.0799Z" fill="#09A5BE"/>
</g>
<defs>
<clipPath id="clip0_1_913">
<rect width="20" height="20" fill="white" transform="matrix(1 0 0 -1 0 20.2798)"/>
</clipPath>
</defs>
</svg>
