<svg width="15" height="15" viewBox="0 0 15 15" fill="none" xmlns="http://www.w3.org/2000/svg">
<g clip-path="url(#clip0_1_781)">
<path d="M7.44995 13.4034C6.32995 13.4034 5.30328 13.1312 4.36995 12.5867C3.43662 12.0423 2.69773 11.3034 2.15328 10.37C1.60884 9.43671 1.33662 8.41004 1.33662 7.29004C1.33662 6.17004 1.60884 5.14337 2.15328 4.21004C2.69773 3.27671 3.43662 2.53782 4.36995 1.99337C5.30328 1.44893 6.32995 1.17671 7.44995 1.17671C8.56995 1.17671 9.59662 1.44893 10.53 1.99337C11.4633 2.53782 12.2022 3.27671 12.7466 4.21004C13.2911 5.14337 13.5633 6.17004 13.5633 7.29004C13.5633 8.41004 13.2911 9.43671 12.7466 10.37C12.2022 11.3034 11.4633 12.0423 10.53 12.5867C9.59662 13.1312 8.56995 13.4034 7.44995 13.4034ZM7.44995 14.29C8.72551 14.29 9.89995 13.9789 10.9733 13.3567C12.0466 12.7345 12.8944 11.8867 13.5166 10.8134C14.1388 9.74004 14.45 8.56559 14.45 7.29004C14.45 6.01448 14.1388 4.84004 13.5166 3.76671C12.8944 2.69337 12.0466 1.84559 10.9733 1.22337C9.89995 0.601151 8.72551 0.290039 7.44995 0.290039C6.1744 0.290039 4.99995 0.601151 3.92662 1.22337C2.85328 1.84559 2.00551 2.69337 1.38328 3.76671C0.761062 4.84004 0.449951 6.01448 0.449951 7.29004C0.449951 8.56559 0.761062 9.74004 1.38328 10.8134C2.00551 11.8867 2.85328 12.7345 3.92662 13.3567C4.99995 13.9789 6.1744 14.29 7.44995 14.29ZM8.24328 6.07671L6.28328 6.31004L6.18995 6.63671L6.56328 6.73004C6.71884 6.76115 6.81217 6.80004 6.84328 6.84671C6.8744 6.89337 6.8744 6.97893 6.84328 7.10337L6.18995 10.1367C6.0344 10.9145 6.26773 11.3034 6.88995 11.3034C7.13884 11.3034 7.38773 11.2567 7.63662 11.1634C7.88551 11.07 8.07217 10.9456 8.19662 10.79L8.24328 10.4167C8.08773 10.5723 7.89328 10.65 7.65995 10.65C7.42662 10.65 7.34106 10.4945 7.40328 10.1834L8.24328 6.07671ZM8.33662 4.21004C8.33662 4.45893 8.25106 4.66893 8.07995 4.84004C7.90884 5.01115 7.69884 5.09671 7.44995 5.09671C7.20106 5.09671 6.99106 5.01115 6.81995 4.84004C6.64884 4.66893 6.56328 4.46671 6.56328 4.23337C6.56328 4.00004 6.64884 3.79782 6.81995 3.62671C6.99106 3.4556 7.20106 3.37004 7.44995 3.37004C7.69884 3.37004 7.90884 3.4556 8.07995 3.62671C8.25106 3.79782 8.33662 3.99226 8.33662 4.21004Z" fill="white" fill-opacity="0.4"/>
</g>
<defs>
<clipPath id="clip0_1_781">
<rect width="14" height="14" fill="white" transform="matrix(1 0 0 -1 0.449951 14.29)"/>
</clipPath>
</defs>
</svg>
