<svg width="23" height="23" viewBox="0 0 23 23" fill="none" xmlns="http://www.w3.org/2000/svg">
<g clip-path="url(#clip0_1_36)">
<g clip-path="url(#clip1_1_36)">
<path d="M15.7434 8.91996V7.08663C15.7434 4.51996 13.7267 2.5033 11.16 2.5033C8.59336 2.5033 6.57669 4.51996 6.57669 7.08663V8.91996C5.01836 8.91996 3.82669 10.1116 3.82669 11.67V18.0866C3.82669 19.645 5.01836 20.8366 6.57669 20.8366H15.7434C17.3017 20.8366 18.4934 19.645 18.4934 18.0866V11.67C18.4934 10.1116 17.3017 8.91996 15.7434 8.91996ZM8.41002 7.08663C8.41002 5.5283 9.60169 4.33663 11.16 4.33663C12.7184 4.33663 13.91 5.5283 13.91 7.08663V8.91996H8.41002V7.08663ZM12.1684 14.8783L12.0767 14.97V16.2533C12.0767 16.8033 11.71 17.17 11.16 17.17C10.61 17.17 10.2434 16.8033 10.2434 16.2533V14.97C9.69336 14.42 9.60169 13.595 10.1517 13.045C10.7017 12.495 11.5267 12.4033 12.0767 12.9533C12.6267 13.4116 12.7184 14.3283 12.1684 14.8783Z" fill="white" fill-opacity="0.6"/>
</g>
</g>
<defs>
<clipPath id="clip0_1_36">
<rect width="22" height="22" fill="white" transform="translate(0.160034 0.669922)"/>
</clipPath>
<clipPath id="clip1_1_36">
<rect width="22" height="22" fill="white" transform="translate(0.160034 0.669922)"/>
</clipPath>
</defs>
</svg>
