<svg width="17" height="14" viewBox="0 0 17 14" fill="none" xmlns="http://www.w3.org/2000/svg">
<g filter="url(#filter0_d_1_14)">
<path d="M11.9338 12.6901L10.4498 12.3395C10.6209 11.1105 11.0189 10.0435 11.6437 9.13869C12.2611 8.22635 13.0049 7.63445 13.8752 7.36301H0.619995V6.01711H13.8752C13.0049 5.74567 12.2611 5.15754 11.6437 4.25274C11.0189 3.34039 10.6209 2.2697 10.4498 1.04068L11.9338 0.690063C12.0231 2.25839 12.4954 3.50627 13.3508 4.4337C14.1988 5.35359 15.2885 5.88139 16.62 6.01711V7.36301C15.2885 7.49873 14.1988 8.03031 13.3508 8.95773C12.4954 9.87762 12.0231 11.1218 11.9338 12.6901Z" fill="white"/>
</g>
<defs>
<filter id="filter0_d_1_14" x="0.619995" y="0.690063" width="16" height="13" filterUnits="userSpaceOnUse" color-interpolation-filters="sRGB">
<feFlood flood-opacity="0" result="BackgroundImageFix"/>
<feColorMatrix in="SourceAlpha" type="matrix" values="0 0 0 0 0 0 0 0 0 0 0 0 0 0 0 0 0 0 127 0" result="hardAlpha"/>
<feOffset dy="1"/>
<feComposite in2="hardAlpha" operator="out"/>
<feColorMatrix type="matrix" values="0 0 0 0 0 0 0 0 0 0 0 0 0 0 0 0 0 0 0.25 0"/>
<feBlend mode="normal" in2="BackgroundImageFix" result="effect1_dropShadow_1_14"/>
<feBlend mode="normal" in="SourceGraphic" in2="effect1_dropShadow_1_14" result="shape"/>
</filter>
</defs>
</svg>
