<svg width="20" height="21" viewBox="0 0 20 21" fill="none" xmlns="http://www.w3.org/2000/svg">
<g clip-path="url(#clip0_1_919)">
<path d="M10 0.279783C8.17778 0.279783 6.5 0.724228 4.96667 1.61312C3.43333 2.50201 2.22222 3.71312 1.33333 5.24645C0.444444 6.77978 0 8.45756 0 10.2798C0 12.102 0.444444 13.7798 1.33333 15.3131C2.22222 16.8465 3.43333 18.0576 4.96667 18.9465C6.5 19.8353 8.17778 20.2798 10 20.2798C11.8222 20.2798 13.5 19.8353 15.0333 18.9465C16.5667 18.0576 17.7778 16.8465 18.6667 15.3131C19.5556 13.7798 20 12.102 20 10.2798C20 8.45756 19.5556 6.77978 18.6667 5.24645C17.7778 3.71312 16.5667 2.50201 15.0333 1.61312C13.5 0.724228 11.8222 0.279783 10 0.279783ZM14.6 14.6798C14.5111 14.8576 14.3778 14.9576 14.2 14.9798C14.0222 15.002 13.8667 14.9687 13.7333 14.8798C11.3778 13.4576 8.44444 13.1465 4.93333 13.9465C4.75556 13.9909 4.6 13.9687 4.46667 13.8798C4.33333 13.7909 4.24444 13.6576 4.2 13.4798C4.15556 13.302 4.17778 13.1465 4.26667 13.0131C4.35556 12.8798 4.48889 12.7909 4.66667 12.7465C8.48889 11.8576 11.7333 12.2131 14.4 13.8131C14.5333 13.902 14.6222 14.0353 14.6667 14.2131C14.7111 14.3909 14.6889 14.5465 14.6 14.6798ZM15.8 11.9465C15.7111 12.1687 15.5556 12.302 15.3333 12.3465C15.1111 12.3909 14.9111 12.3465 14.7333 12.2131C13.4 11.4131 11.8 10.902 9.93333 10.6798C8.06667 10.4576 6.35556 10.5909 4.8 11.0798C4.57778 11.1242 4.37778 11.0909 4.2 10.9798C4.02222 10.8687 3.9 10.7131 3.83333 10.5131C3.76667 10.3131 3.77778 10.1242 3.86667 9.94645C3.95556 9.76867 4.11111 9.63534 4.33333 9.54645C6.15556 9.01312 8.1 8.86867 10.1667 9.11312C12.2333 9.35756 14.0222 9.94645 15.5333 10.8798C15.7111 11.0131 15.8333 11.1798 15.9 11.3798C15.9667 11.5798 15.9333 11.7909 15.8 12.0131V11.9465ZM15.9333 9.14645C14.9111 8.52423 13.6444 8.07978 12.1333 7.81312C10.8 7.54645 9.42222 7.42423 8 7.44645C6.57778 7.46867 5.33333 7.65756 4.26667 8.01312C3.95556 8.10201 3.66667 8.02423 3.4 7.77978C3.13333 7.53534 3.04444 7.23534 3.13333 6.87978C3.22222 6.52423 3.42222 6.30201 3.73333 6.21312C4.93333 5.85756 6.33333 5.64645 7.93333 5.57978C9.53333 5.51312 11.0889 5.63534 12.6 5.94645C14.2444 6.30201 15.6667 6.83534 16.8667 7.54645C17.0889 7.67978 17.2333 7.86867 17.3 8.11312C17.3667 8.35756 17.3333 8.5909 17.2 8.81312C17.0667 9.03534 16.8778 9.17978 16.6333 9.24645C16.3889 9.31312 16.1556 9.27978 15.9333 9.14645Z" fill="#01FF01"/>
</g>
<defs>
<clipPath id="clip0_1_919">
<rect width="20" height="20" fill="white" transform="matrix(1 0 0 -1 0 20.2798)"/>
</clipPath>
</defs>
</svg>
