<svg width="20" height="21" viewBox="0 0 20 21" fill="none" xmlns="http://www.w3.org/2000/svg">
<g clip-path="url(#clip0_1_916)">
<path d="M20 10.2798C20 12.102 19.5556 13.7798 18.6667 15.3131C17.7778 16.8465 16.5667 18.0576 15.0333 18.9465C13.5 19.8353 11.8222 20.2798 10 20.2798C8.17778 20.2798 6.5 19.8353 4.96667 18.9465C3.43333 18.0576 2.22222 16.8465 1.33333 15.3131C0.444444 13.7798 0 12.102 0 10.2798C0 8.45756 0.444444 6.77978 1.33333 5.24645C2.22222 3.71312 3.43333 2.50201 4.96667 1.61312C6.5 0.724228 8.17778 0.279783 10 0.279783C11.8222 0.279783 13.5 0.724228 15.0333 1.61312C16.5667 2.50201 17.7778 3.71312 18.6667 5.24645C19.5556 6.77978 20 8.45756 20 10.2798ZM10.3333 7.67978C9.35556 8.07978 7.42222 8.90201 4.53333 10.1465C4.04444 10.3687 3.78889 10.5576 3.76667 10.7131C3.74444 10.8687 3.8 10.9798 3.93333 11.0465C4.06667 11.1131 4.31111 11.2131 4.66667 11.3465L4.86667 11.4131C5.57778 11.6353 6.1 11.7465 6.43333 11.7465C6.76667 11.7465 7.13333 11.6131 7.53333 11.3465C10.2444 9.52423 11.6444 8.60201 11.7333 8.57978C11.8222 8.55756 11.8889 8.56867 11.9333 8.61312C11.9778 8.65756 11.9889 8.72423 11.9667 8.81312C11.9444 8.90201 11.2 9.63534 9.73333 11.0131L9 11.6798C8.68889 11.9465 8.51111 12.1798 8.46667 12.3798C8.42222 12.5798 8.6 12.7909 9 13.0131L11.6 14.7465C11.8667 14.9687 12.0889 15.1242 12.2667 15.2131C12.4444 15.302 12.6222 15.3242 12.8 15.2798C13.1556 15.2798 13.4 14.9465 13.5333 14.2798C13.7111 13.1687 13.9111 11.9465 14.1333 10.6131C14.4 8.96867 14.5778 7.7909 14.6667 7.07978C14.6667 6.94645 14.6556 6.82423 14.6333 6.71312C14.6111 6.60201 14.5556 6.50201 14.4667 6.41312C14.3778 6.32423 14.2444 6.27978 14.0667 6.27978C13.8889 6.27978 13.5667 6.36867 13.1 6.54645C12.6333 6.72423 11.7111 7.10201 10.3333 7.67978Z" fill="#377DFF"/>
</g>
<defs>
<clipPath id="clip0_1_916">
<rect width="20" height="20" fill="white" transform="matrix(1 0 0 -1 0 20.2798)"/>
</clipPath>
</defs>
</svg>
