<svg width="29" height="29" viewBox="0 0 29 29" fill="none" xmlns="http://www.w3.org/2000/svg">
<path d="M25.1067 6.91665C25.2934 7.10331 25.3867 7.32109 25.3867 7.56998C25.3867 7.81887 25.2934 8.03665 25.1067 8.22331L12.88 20.45C12.6934 20.6366 12.4756 20.73 12.2267 20.73C11.9778 20.73 11.76 20.6366 11.5734 20.45L5.50668 14.29C5.32002 14.1655 5.22668 13.9789 5.22668 13.73C5.22668 13.4811 5.30446 13.2633 5.46002 13.0766C5.61557 12.89 5.8178 12.7966 6.06668 12.7966C6.31557 12.7966 6.53335 12.89 6.72002 13.0766L12.2267 18.5833L23.8 6.91665C23.9867 6.7922 24.2045 6.72998 24.4534 6.72998C24.7022 6.72998 24.92 6.7922 25.1067 6.91665Z" fill="white" fill-opacity="0.2"/>
</svg>
