<svg width="20" height="21" viewBox="0 0 20 21" fill="none" xmlns="http://www.w3.org/2000/svg">
<rect y="0.870117" width="20" height="20" rx="10" fill="#FA8922" fill-opacity="0.1"/>
<g clip-path="url(#clip0_1_728)">
<path d="M10.4047 5.63013C10.2715 5.63013 10.1383 5.63013 10.005 5.63013V4.87013H10.4447L10.4047 5.63013ZM11.8835 5.99013C11.6437 5.88347 11.4039 5.80347 11.1641 5.75013L11.324 5.03013C11.617 5.08347 11.8968 5.16347 12.1633 5.27013L11.8835 5.99013ZM12.9226 6.51013C12.8161 6.43013 12.7095 6.36347 12.6029 6.31013L12.9626 5.63013C13.229 5.79013 13.4688 5.96347 13.682 6.15013L13.2424 6.75013L12.9226 6.51013ZM14.2815 7.83013C14.1483 7.64347 13.9884 7.44347 13.8019 7.23013L14.3614 6.75013C14.548 6.96347 14.7345 7.19013 14.921 7.43013L14.2815 7.83013ZM14.841 8.87013C14.7878 8.7368 14.7345 8.6168 14.6812 8.51013L15.3606 8.19013C15.4938 8.43013 15.6004 8.6968 15.6804 8.99013L15.0009 9.23013L14.841 8.87013ZM15.2407 10.7501C15.2407 10.4835 15.2141 10.2301 15.1608 9.99013L15.9202 9.83013C15.9734 10.1235 16.0001 10.4168 16.0001 10.7101L15.2407 10.7501ZM15.1608 11.9101C15.1874 11.7768 15.2007 11.6435 15.2007 11.5101L15.9601 11.5901C15.9335 11.8835 15.8802 12.1768 15.8003 12.4701L15.0409 12.2701L15.1608 11.9101ZM14.4414 13.6701C14.5746 13.4568 14.6945 13.2301 14.8011 12.9901L15.4805 13.3101C15.3739 13.5768 15.2407 13.8301 15.0808 14.0701L14.4414 13.6701ZM13.722 14.5901C13.8019 14.4835 13.8818 14.3901 13.9618 14.3101L14.5613 14.7901L14.2415 15.1101L13.722 14.5901ZM10.005 5.63013C9.23234 5.63013 8.49295 5.79013 7.78687 6.11013C7.08079 6.43013 6.48128 6.89013 5.98836 7.49013C5.49543 8.09013 5.14905 8.76347 4.94921 9.51013C4.74938 10.2568 4.71607 11.0101 4.8493 11.7701C4.98252 12.5301 5.26895 13.2301 5.70859 13.8701C6.14822 14.5101 6.70776 15.0235 7.3872 15.4101C8.06664 15.7968 8.79271 16.0235 9.5654 16.0901C10.3381 16.1568 11.0841 16.0635 11.8036 15.8101C12.523 15.5568 13.1624 15.1501 13.722 14.5901L14.2415 15.1101C13.6021 15.7501 12.8693 16.2168 12.0434 16.5101C11.2174 16.8035 10.3647 16.9168 9.48547 16.8501C8.60619 16.7835 7.78021 16.5235 7.00751 16.0701C6.23482 15.6168 5.59535 15.0301 5.0891 14.3101C4.58285 13.5901 4.24979 12.7968 4.08992 11.9301C3.93006 11.0635 3.97002 10.1968 4.20983 9.33013C4.44963 8.46347 4.85596 7.69013 5.42882 7.01013C6.00168 6.33013 6.68112 5.80347 7.46714 5.43013C8.25315 5.0568 9.09912 4.87013 10.005 4.87013V5.63013ZM9.64534 7.11013C9.75191 7.11013 9.83851 7.15013 9.90512 7.23013C9.97173 7.31013 10.005 7.40347 10.005 7.51013V11.3901L12.443 12.7901C12.523 12.8435 12.5762 12.9168 12.6029 13.0101C12.6295 13.1035 12.6162 13.1968 12.5629 13.2901C12.5096 13.3835 12.4364 13.4435 12.3431 13.4701C12.2499 13.4968 12.1633 13.4835 12.0833 13.4301L9.4455 11.9501C9.31228 11.8701 9.24567 11.7635 9.24567 11.6301V7.51013C9.24567 7.40347 9.28563 7.31013 9.36557 7.23013C9.4455 7.15013 9.53876 7.11013 9.64534 7.11013Z" fill="#FA8922"/>
</g>
<defs>
<clipPath id="clip0_1_728">
<rect width="12.11" height="12" fill="white" transform="matrix(1 0 0 -1 3.95 16.8701)"/>
</clipPath>
</defs>
</svg>
