<svg width="43" height="44" viewBox="0 0 43 44" fill="none" xmlns="http://www.w3.org/2000/svg">
<g filter="url(#filter0_b_1_971)">
<rect x="0.47998" y="0.75" width="42.5" height="42.5" rx="21.25" fill="#3C208C" fill-opacity="0.2"/>
<rect x="0.97998" y="1.25" width="41.5" height="41.5" rx="20.75" stroke="#FA8922"/>
<g clip-path="url(#clip0_1_971)">
<g clip-path="url(#clip1_1_971)">
<g clip-path="url(#clip2_1_971)">
<mask id="mask0_1_971" style="mask-type:luminance" maskUnits="userSpaceOnUse" x="13" y="14" width="17" height="16">
<path d="M29.73 14H13.73V30H29.73V14Z" fill="white"/>
</mask>
<g mask="url(#mask0_1_971)">
<path d="M26.0936 30H17.3663C16.4023 29.9989 15.478 29.6154 14.7963 28.9337C14.1146 28.252 13.7311 27.3278 13.73 26.3637V19.091C13.7311 18.1269 14.1146 17.2026 14.7963 16.5209C15.478 15.8392 16.4023 15.4557 17.3663 15.4546H26.0936C27.0577 15.4557 27.982 15.8392 28.6637 16.5209C29.3454 17.2026 29.7288 18.1269 29.73 19.091V26.3637C29.7288 27.3278 29.3454 28.252 28.6637 28.9337C27.982 29.6154 27.0577 29.9989 26.0936 30ZM17.3663 16.9091C16.7879 16.9097 16.2333 17.1398 15.8242 17.5488C15.4152 17.9579 15.1851 18.5125 15.1845 19.091V26.3637C15.1851 26.9422 15.4152 27.4968 15.8242 27.9058C16.2333 28.3149 16.7879 28.5449 17.3663 28.5455H26.0936C26.6721 28.5449 27.2267 28.3149 27.6358 27.9058C28.0448 27.4968 28.2749 26.9422 28.2755 26.3637V19.091C28.2749 18.5125 28.0448 17.9579 27.6358 17.5488C27.2267 17.1398 26.6721 16.9097 26.0936 16.9091H17.3663Z" fill="#FA8922" fill-opacity="0.6"/>
<path d="M21.7304 16.9089C21.6349 16.909 21.5403 16.8903 21.452 16.8537C21.3638 16.8171 21.2836 16.7635 21.2162 16.6958L19.7617 15.2413C19.6292 15.1041 19.5559 14.9204 19.5575 14.7297C19.5592 14.5391 19.6357 14.3566 19.7705 14.2218C19.9054 14.087 20.0878 14.0105 20.2785 14.0088C20.4691 14.0072 20.6529 14.0805 20.79 14.2129L21.7304 15.1533L22.6707 14.2129C22.8079 14.0805 22.9916 14.0072 23.1823 14.0088C23.373 14.0105 23.5554 14.087 23.6903 14.2218C23.8251 14.3566 23.9016 14.5391 23.9033 14.7297C23.9049 14.9204 23.8316 15.1041 23.6991 15.2413L22.2446 16.6958C22.1771 16.7635 22.097 16.8171 22.0087 16.8537C21.9205 16.8903 21.8259 16.909 21.7304 16.9089ZM17.3667 24.1817C17.1943 24.1813 17.0277 24.1196 16.8965 24.0078C16.7653 23.8959 16.6781 23.741 16.6505 23.5709C16.6229 23.4007 16.6566 23.2262 16.7457 23.0786C16.8348 22.931 16.9735 22.8198 17.1369 22.7649L21.5006 21.3104C21.6098 21.2734 21.7263 21.2631 21.8403 21.2804C21.9543 21.2978 22.0626 21.3422 22.1558 21.41C22.2492 21.4775 22.3253 21.5661 22.3777 21.6686C22.4302 21.7712 22.4576 21.8847 22.4577 21.9998V22.4449L25.8642 21.3104C26.0459 21.2543 26.2422 21.2716 26.4113 21.3585C26.5803 21.4454 26.7086 21.5951 26.7687 21.7754C26.8288 21.9558 26.8159 22.1525 26.7327 22.3234C26.6496 22.4944 26.5028 22.626 26.3239 22.69L21.9602 24.1446C21.8509 24.1812 21.7344 24.1912 21.6204 24.1739C21.5064 24.1565 21.3982 24.1123 21.3047 24.0449C21.2112 23.9775 21.1351 23.8887 21.0826 23.786C21.0302 23.6834 21.0029 23.5697 21.0031 23.4544V23.0093L17.5966 24.1439C17.5225 24.1688 17.4449 24.1815 17.3667 24.1817Z" fill="#FA8922" fill-opacity="0.6"/>
</g>
</g>
</g>
</g>
</g>
<defs>
<filter id="filter0_b_1_971" x="-11.52" y="-11.25" width="66.5" height="66.5" filterUnits="userSpaceOnUse" color-interpolation-filters="sRGB">
<feFlood flood-opacity="0" result="BackgroundImageFix"/>
<feGaussianBlur in="BackgroundImageFix" stdDeviation="6"/>
<feComposite in2="SourceAlpha" operator="in" result="effect1_backgroundBlur_1_971"/>
<feBlend mode="normal" in="SourceGraphic" in2="effect1_backgroundBlur_1_971" result="shape"/>
</filter>
<clipPath id="clip0_1_971">
<rect width="16" height="16" fill="white" transform="translate(13.73 14)"/>
</clipPath>
<clipPath id="clip1_1_971">
<rect width="16" height="16" fill="white" transform="translate(13.73 14)"/>
</clipPath>
<clipPath id="clip2_1_971">
<rect width="16" height="16" fill="white" transform="translate(13.73 14)"/>
</clipPath>
</defs>
</svg>
