<svg width="20" height="21" viewBox="0 0 20 21" fill="none" xmlns="http://www.w3.org/2000/svg">
<g clip-path="url(#clip0_1_910)">
<path d="M6.26667 19.0132C8.66667 19.0132 10.8 18.4132 12.6667 17.2132C14.3556 16.1021 15.6667 14.6354 16.6 12.8132C17.4889 11.0354 17.9333 9.21318 17.9333 7.34652V6.81318C18.7333 6.2354 19.4222 5.52429 20 4.67985C19.2444 5.03541 18.4667 5.25763 17.6667 5.34652C18.5556 4.81318 19.1556 4.05763 19.4667 3.07985C18.6222 3.56874 17.7556 3.90207 16.8667 4.07985C16.2 3.41318 15.4111 3.00207 14.5 2.84652C13.5889 2.69096 12.7222 2.83541 11.9 3.27985C11.0778 3.72429 10.4778 4.36874 10.1 5.21318C9.72222 6.05763 9.64445 6.92429 9.86667 7.81318C8.22222 7.72429 6.65556 7.31318 5.16667 6.57985C3.67778 5.84652 2.42222 4.83541 1.4 3.54652C0.866667 4.47985 0.722222 5.46874 0.966667 6.51318C1.21111 7.55763 1.77778 8.39096 2.66667 9.01318C2 8.96874 1.37778 8.79096 0.8 8.47985V8.54652C0.8 9.52429 1.11111 10.391 1.73333 11.1465C2.35556 11.9021 3.13333 12.3687 4.06667 12.5465C3.71111 12.6799 3.35556 12.7465 3 12.7465C2.73333 12.7465 2.48889 12.7243 2.26667 12.6799C2.53333 13.4798 3.01111 14.1465 3.7 14.6799C4.38889 15.2132 5.17778 15.4799 6.06667 15.4799C5.35556 16.0576 4.55556 16.5021 3.66667 16.8132C2.77778 17.1243 1.88889 17.2799 1 17.2799C0.644444 17.2799 0.311111 17.2576 0 17.2132C1.91111 18.4132 4 19.0132 6.26667 19.0132Z" fill="#377DFF"/>
</g>
<defs>
<clipPath id="clip0_1_910">
<rect width="20" height="20" fill="white" transform="matrix(1 0 0 -1 0 20.2798)"/>
</clipPath>
</defs>
</svg>
