<svg width="19" height="17" viewBox="0 0 19 17" fill="none" xmlns="http://www.w3.org/2000/svg">
<g clip-path="url(#clip0_1_65)">
<g clip-path="url(#clip1_1_65)">
<g clip-path="url(#clip2_1_65)">
<path d="M10.0389 16.0503C14.1409 16.0503 17.4662 12.6126 17.4662 8.37031C17.4662 4.12803 14.1409 0.690308 10.0389 0.690308H8.95312V16.0503H10.0389Z" fill="#CC8232"/>
<path d="M9.0932 16.0503C13.2685 16.0503 16.6532 12.6119 16.6532 8.37031C16.6532 4.12877 13.2685 0.690308 9.0932 0.690308C4.91793 0.690308 1.5332 4.12877 1.5332 8.37031C1.5332 12.6119 4.91793 16.0503 9.0932 16.0503Z" fill="#DFC805"/>
<path d="M9.0933 14.4619C12.4057 14.4619 15.0909 11.734 15.0909 8.36905C15.0909 5.00409 12.4057 2.27625 9.0933 2.27625C5.78092 2.27625 3.0957 5.00409 3.0957 8.36905C3.0957 11.734 5.78092 14.4619 9.0933 14.4619Z" fill="#DBB106"/>
<g style="mix-blend-mode:screen" opacity="0.2">
<path d="M3.41797 6.39057L11.0395 14.1331C11.8042 13.8661 12.5078 13.4446 13.1079 12.8941L4.63801 4.28936C4.09592 4.89896 3.68091 5.61371 3.41797 6.39057ZM14.9281 9.77837L7.70467 2.44031C7.23967 2.55207 6.78962 2.72028 6.36421 2.94134L14.4349 11.1399C14.6524 10.7078 14.818 10.2507 14.9281 9.77837Z" fill="#E0E0E0"/>
</g>
<g style="mix-blend-mode:screen" opacity="0.5">
<path d="M1.92128 8.37031C1.92128 4.19477 5.20214 0.797463 9.2876 0.692868C9.22292 0.691162 9.15812 0.690308 9.0932 0.690308C4.9172 0.690308 1.5332 4.12803 1.5332 8.37031C1.5332 12.6126 4.9172 16.0503 9.0932 16.0503C9.15824 16.0503 9.22304 16.0495 9.2876 16.0478C5.20214 15.9432 1.92128 12.5459 1.92128 8.37031Z" fill="#E0E0E0"/>
</g>
<g style="mix-blend-mode:screen">
<path d="M11.6936 3.11136C14.5916 4.85655 15.5501 8.65869 13.8322 11.6038C13.1566 12.7661 12.1244 13.6713 10.8939 14.1806C12.3048 13.7318 13.5019 12.7676 14.2538 11.4743C15.9424 8.57934 15.0011 4.84191 12.1516 3.12654C11.2578 2.58687 10.2408 2.29376 9.20117 2.27625C10.082 2.36687 10.9326 2.65189 11.6936 3.11136Z" fill="#E0E0E0"/>
</g>
<path d="M6.03654 13.6136C7.31616 14.3866 8.83378 14.6463 10.2921 14.3421C9.02509 14.4685 7.75148 14.1801 6.65718 13.5192C3.80688 11.8038 2.86566 8.0664 4.55442 5.17196C4.98062 4.43927 5.55356 3.80569 6.23613 3.31224C6.9187 2.8188 7.69568 2.4765 8.51676 2.3075C6.67878 2.49036 4.9479 3.52825 3.93432 5.26576C2.2461 8.16076 3.18696 11.8982 6.03654 13.6136Z" fill="#CC8232"/>
<path d="M12.1158 12.1886L10.7001 9.93194H12.7331V9.08001H6.06641V9.93285H8.09933L6.68363 12.1886H7.73717L9.39965 9.53898L11.0623 12.1886H12.1158ZM12.7331 8.25057V7.39772H10.7417L12.1405 5.16687H11.0785L9.39965 7.85834L7.72079 5.16687H6.65879L8.05811 7.39772H6.06641V8.25898L12.7331 8.25057Z" fill="#CC8232"/>
<path d="M12.1139 12.1901L10.6982 9.93267H12.7311V9.07983H6.06445V9.93267H8.09737L6.68167 12.1901H7.73557L9.39769 9.53971L11.0604 12.1901H12.1139ZM12.7311 8.25203V7.39919H10.7394L12.1386 5.16687H11.0766L9.39769 7.85907L7.71883 5.16687H6.65683L8.05597 7.39919H6.06445V8.25971L12.7311 8.2513V8.25203Z" fill="#CC8232"/>
<path d="M12.1119 12.1901L10.6962 9.93267H12.7292V9.07983H6.0625V9.93267H8.09542L6.67972 12.1901H7.73326L9.39574 9.53971L11.0584 12.1901H12.1119ZM12.7292 8.25203V7.39918H10.7375L12.1366 5.16687H11.0746L9.39574 7.85925L7.71742 5.16687H6.65542L8.05456 7.39918H6.0625V8.26044L12.7292 8.25203Z" fill="#CC8232"/>
<path d="M12.1105 12.1901L10.6955 9.93267H12.7284V9.07983H6.0625V9.93267H8.0947L6.679 12.1901H7.73254L9.39502 9.53971L11.0577 12.1901H12.1105ZM12.7277 8.25203V7.39918H10.7367L12.1359 5.16687H11.0739L9.39502 7.85907L7.71616 5.16687H6.65416L8.0533 7.39918H6.0625V8.26044L12.7292 8.25203H12.7277Z" fill="#CC8232"/>
<path d="M12.1061 12.1901L10.6904 9.93267H12.7233V9.07983H6.05664V9.93267H8.08956L6.67386 12.1901H7.7274L9.38916 9.53971L11.0518 12.1901H12.1061ZM12.7233 8.25203V7.39919H10.7316L12.1307 5.16687H11.0687L9.38916 7.85907L7.71102 5.16687H6.64902L8.04816 7.39919H6.05664V8.26044L12.7233 8.25203Z" fill="#CC8232"/>
<path d="M12.1061 12.1822L10.6904 9.92487H12.7233V9.07202H6.05664V9.92487H8.08956L6.67386 12.1822H7.7274L9.38988 9.53191L11.0525 12.1822H12.1061ZM12.7233 8.24423V7.39138H10.7316L12.1307 5.15906H11.0687L9.38988 7.85127L7.71102 5.15906H6.64902L8.04816 7.39138H6.05664V8.25264L12.7233 8.24423Z" fill="#CC8232"/>
<path d="M12.1041 12.1822L10.6884 9.92505H12.7208V9.07202H6.05469V9.92505H8.08761L6.67281 12.1822H7.72635L9.38793 9.53191L11.0506 12.1822H12.1041ZM12.7208 8.24423V7.39138H10.7296L12.1288 5.15906H11.0668L9.38793 7.85127L7.70907 5.15906H6.64707L8.04621 7.39138H6.05469V8.25264L12.7208 8.24423Z" fill="#CC8232"/>
<path d="M12.1022 12.1822L10.6867 9.92487H12.7194V9.07202H6.05273V9.92487H8.08565L6.66995 12.1822H7.72349L9.38597 9.53191L11.0486 12.1822H12.1022ZM12.7194 8.24459V7.39138H10.7277L12.1267 5.15906H11.0647L9.38597 7.85127L7.70711 5.15906H6.64511L8.04425 7.39138H6.05273V8.25264L12.7194 8.24459Z" fill="#CC8232"/>
<path d="M12.1022 12.1744L10.6865 9.91705H12.7194V9.06421H6.05273V9.91705H8.08565L6.66995 12.1744H7.72349L9.38597 9.5241L11.0485 12.1744H12.1022ZM12.7194 8.23642V7.38356H10.7277L12.1268 5.15125H11.0648L9.38597 7.84345L7.70711 5.15125H6.64511L8.04425 7.38356H6.05273V8.24483L12.7194 8.23642Z" fill="#CC8232"/>
<path d="M12.0983 12.1744L10.6826 9.91705H12.7155V9.06421H6.04883V9.91705H8.08175L6.66605 12.1744H7.71959L9.38207 9.5241L11.0447 12.1744H12.0983ZM12.7155 8.23642V7.38356H10.7238L12.1229 5.15125H11.0609L9.38207 7.84345L7.70321 5.15125H6.64121L8.04035 7.38356H6.04883V8.24483L12.7155 8.23642Z" fill="#CC8232"/>
<path d="M12.0983 12.173L10.6826 9.91632H12.7155V9.06439H6.04883V9.91723H8.08175L6.66605 12.173H7.71959L9.38207 9.52336L11.0447 12.173H12.0983ZM12.7155 8.23495V7.38211H10.7241L12.1229 5.15125H11.0609L9.38207 7.84272L7.70321 5.15125H6.64121L8.04053 7.38211H6.04883V8.24335L12.7155 8.23495Z" fill="#CC8232"/>
<path d="M12.0963 12.1744L10.6806 9.91705H12.7135V9.06421H6.04688V9.91705H8.07978L6.66409 12.1744H7.71799L9.38011 9.5241L11.0428 12.1744H12.0963ZM12.7135 8.23642V7.38356H10.7218L12.121 5.15125H11.059L9.38011 7.84345L7.70126 5.15125H6.63926L8.03839 7.38356H6.04688V8.24409L12.7135 8.23568V8.23642Z" fill="#CC8232"/>
<path d="M12.0944 12.1744L10.6787 9.91705H12.7116V9.06421H6.04492V9.91705H8.07784L6.66214 12.1744H7.71568L9.37816 9.5241L11.0408 12.1744H12.0944ZM12.7116 8.23642V7.38356H10.7199L12.119 5.15125H11.057L9.37816 7.84363L7.69984 5.15125H6.63784L8.03698 7.38356H6.04492V8.24483L12.7116 8.23642Z" fill="#CC8232"/>
<path d="M12.0929 12.1666L10.6779 9.90923H12.7109V9.05639H6.04492V9.90923H8.07712L6.66142 12.1666H7.71496L9.37744 9.51627L11.0401 12.1666H12.0929ZM12.7101 8.22859V7.37575H10.7192L12.1183 5.14343H11.0563L9.37744 7.83563L7.69858 5.14343H6.63658L8.03572 7.37575H6.04492V8.237L12.7116 8.22859H12.7101Z" fill="#CC8232"/>
<path d="M12.0885 12.1666L10.6728 9.90923H12.7057V9.05639H6.03906V9.90923H8.07198L6.65628 12.1666H7.70982L9.37158 9.51627L11.0342 12.1666H12.0885ZM12.7057 8.22859V7.37575H10.714L12.1132 5.14343H11.0512L9.37158 7.83563L7.69344 5.14343H6.63144L8.03058 7.37575H6.03906V8.237L12.7057 8.22859Z" fill="#CC8232"/>
<path d="M12.0885 12.1666L10.6728 9.90923H12.7057V9.05639H6.03906V9.90923H8.07198L6.65628 12.1666H7.70982L9.3723 9.51627L11.035 12.1666H12.0885ZM12.7057 8.22859V7.37575H10.714L12.1132 5.14343H11.0512L9.3723 7.83563L7.69344 5.14343H6.63144L8.03058 7.37575H6.03906V8.23701L12.7057 8.22859Z" fill="#CC8232"/>
<path d="M12.0865 12.1588L10.6708 9.90161H12.7032V9.04859H6.03711V9.90161H8.07003L6.65523 12.1588H7.70877L9.37035 9.50847L11.033 12.1588H12.0865ZM12.7032 8.22079V7.36795H10.7121L12.1112 5.13562H11.0492L9.37035 7.82783L7.69149 5.13562H6.62949L8.02863 7.36795H6.03711V8.2292L12.7032 8.22079Z" fill="#CC8232"/>
<path d="M12.0846 12.1588L10.6691 9.90143H12.7018V9.04859H6.03516V9.90143H8.06808L6.65238 12.1588H7.70592L9.3684 9.50847L11.0311 12.1588H12.0846ZM12.7018 8.22116V7.36794H10.7101L12.1091 5.13562H11.0471L9.3684 7.82783L7.68954 5.13562H6.62754L8.02668 7.36794H6.03516V8.2292L12.7018 8.22116Z" fill="#CC8232"/>
<path d="M12.0826 12.1588L10.6669 9.90143H12.6999V9.04859H6.0332V9.90143H8.06612L6.65042 12.1588H7.70396L9.36644 9.50847L11.0289 12.1588H12.0826ZM12.6999 8.22079V7.36794H10.7082L12.1073 5.13562H11.0453L9.36644 7.82783L7.68758 5.13562H6.62558L8.02472 7.36794H6.0332V8.2292L12.6999 8.22079Z" fill="#CC8232"/>
<path d="M12.0807 12.1588L10.665 9.90143H12.6979V9.04859H6.03125V9.90143H8.06417L6.64847 12.1588H7.70201L9.36449 9.50847L11.0271 12.1588H12.0807ZM12.6979 8.22079V7.36795H10.7062L12.1054 5.13562H11.0434L9.36449 7.82783L7.68563 5.13562H6.62363L8.02277 7.36795H6.03125V8.2292L12.6979 8.22079Z" fill="#CC8232"/>
<path d="M12.0787 12.1573L10.663 9.9007H12.696V9.04877H6.0293V9.90161H8.06222L6.64652 12.1573H7.70006L9.36254 9.50774L11.0252 12.1573H12.0787ZM12.696 8.21933V7.36648H10.7046L12.1034 5.13562H11.0414L9.36254 7.8271L7.68368 5.13562H6.62168L8.021 7.36648H6.0293V8.22774L12.696 8.21933Z" fill="#CC8232"/>
<path d="M12.0787 12.1588L10.663 9.90143H12.696V9.04859H6.0293V9.90143H8.06222L6.64652 12.1588H7.70042L9.36254 9.50847L11.0252 12.1588H12.0787ZM12.696 8.22079V7.36795H10.7043L12.1034 5.13562H11.0414L9.36254 7.82783L7.68368 5.13562H6.62168L8.02082 7.36795H6.0293V8.22847L12.696 8.22006V8.22079Z" fill="#CC8232"/>
<path d="M12.0768 12.151L10.6611 9.89362H12.694V9.04077H6.02734V9.89362H8.06026L6.64456 12.151H7.6981L9.36058 9.50066L11.0232 12.151H12.0768ZM12.694 8.21298V7.36013H10.7023L12.1014 5.12781H11.0394L9.36058 7.8202L7.68226 5.12781H6.62026L8.0194 7.36013H6.02734V8.22139L12.694 8.21298Z" fill="#CC8232"/>
<path d="M12.0753 12.151L10.6604 9.89362H12.6933V9.04077H6.02734V9.89362H8.05954L6.64384 12.151H7.69738L9.35986 9.50066L11.0225 12.151H12.0753ZM12.6926 8.21298V7.36013H10.7016L12.1007 5.12781H11.0387L9.35986 7.82002L7.681 5.12781H6.619L8.01814 7.36013H6.02734V8.22139L12.694 8.21298H12.6926Z" fill="#CC8232"/>
<path d="M12.0709 12.151L10.6552 9.89362H12.6881V9.04077H6.02148V9.89362H8.0544L6.6387 12.151H7.69224L9.354 9.50066L11.0167 12.151H12.0709ZM12.6881 8.21298V7.36013H10.6964L12.0956 5.12781H11.0336L9.354 7.82002L7.67586 5.12781H6.61386L8.013 7.36013H6.02148V8.22139L12.6881 8.21298Z" fill="#CC8232"/>
<path d="M12.069 12.1432L10.6533 9.8858H12.6862V9.03295H6.01953V9.8858H8.05245L6.63675 12.1432H7.69029L9.35277 9.49285L11.0154 12.1432H12.069ZM12.6862 8.20516V7.35231H10.6945L12.0936 5.12H11.0316L9.35277 7.8122L7.67391 5.12H6.61191L8.01105 7.35231H6.01953V8.21357L12.6862 8.20516Z" fill="#CC8232"/>
<path d="M12.069 12.1432L10.6533 9.88598H12.6857V9.03295H6.01953V9.88598H8.05245L6.63765 12.1432H7.69119L9.35277 9.49285L11.0154 12.1432H12.069ZM12.6857 8.20516V7.35231H10.6945L12.0936 5.12H11.0316L9.35277 7.8122L7.67391 5.12H6.61191L8.01105 7.35231H6.01953V8.21357L12.6857 8.20516Z" fill="#CC8232"/>
<path d="M12.067 12.1432L10.6515 9.8858H12.6842V9.03295H6.01758V9.8858H8.0505L6.6348 12.1432H7.68834L9.35082 9.49285L11.0135 12.1432H12.067ZM12.6842 8.20552V7.35231H10.6925L12.0915 5.12H11.0295L9.35082 7.8122L7.67196 5.12H6.60996L8.0091 7.35231H6.01758V8.21357L12.6842 8.20552Z" fill="#CC8232"/>
<path d="M12.0651 12.1432L10.6494 9.8858H12.6823V9.03295H6.01562V9.8858H8.04854L6.63285 12.1432H7.68639L9.34888 9.49285L11.0113 12.1432H12.0651ZM12.6823 8.20516V7.35231H10.6906L12.0897 5.12H11.0277L9.34888 7.8122L7.67002 5.12H6.60802L8.00716 7.35231H6.01562V8.21357L12.6823 8.20516Z" fill="#CC8232"/>
<path d="M12.0631 12.1432L10.6474 9.8858H12.6803V9.03295H6.01367V9.8858H8.04659L6.63089 12.1432H7.68443L9.34691 9.49285L11.0096 12.1432H12.0631ZM12.6803 8.20516V7.35231H10.6886L12.0878 5.12H11.0258L9.34691 7.8122L7.66805 5.12H6.60605L8.00519 7.35231H6.01367V8.21357L12.6803 8.20516Z" fill="#CC8232"/>
<path d="M12.0612 12.1417L10.6455 9.88507H12.6784V9.03314H6.01172V9.88598H8.04464L6.62894 12.1417H7.68248L9.34496 9.49211L11.0076 12.1417H12.0612ZM12.6784 8.2037V7.35086H10.687L12.0858 5.12H11.0238L9.34496 7.81147L7.6661 5.12H6.6041L8.00342 7.35086H6.01172V8.2121L12.6784 8.2037Z" fill="#CC8232"/>
<path d="M12.0612 12.1354L10.6455 9.87798H12.6784V9.02514H6.01172V9.87798H8.04464L6.62894 12.1354H7.68284L9.34496 9.48502L11.0076 12.1354H12.0612ZM12.6784 8.19734V7.3445H10.6867L12.0858 5.11218H11.0238L9.34496 7.80438L7.6661 5.11218H6.6041L8.00324 7.3445H6.01172V8.20502L12.6784 8.19661V8.19734Z" fill="#CC8232"/>
<path d="M12.0592 12.1354L10.6435 9.87798H12.6764V9.02514H6.00977V9.87798H8.04269L6.62699 12.1354H7.68053L9.34301 9.48502L11.0057 12.1354H12.0592ZM12.6764 8.19734V7.3445H10.6847L12.0839 5.11218H11.0219L9.34301 7.80457L7.66469 5.11218H6.60269L8.00183 7.3445H6.00977V8.20575L12.6764 8.19734Z" fill="#CC8232"/>
<path d="M12.0558 12.1354L10.6408 9.87798H12.6738V9.02514H6.00781V9.87798H8.04001L6.62431 12.1354H7.67785L9.34033 9.48502L11.003 12.1354H12.0558ZM12.673 8.19734V7.3445H10.6821L12.0812 5.11218H11.0192L9.34033 7.80438L7.66147 5.11218H6.59947L7.99861 7.3445H6.00781V8.20575L12.6745 8.19734H12.673Z" fill="#CC8232"/>
<path d="M12.0533 12.1276L10.6376 9.87017H12.6706V9.01733H6.00391V9.87017H8.03683L6.62113 12.1276H7.67467L9.33643 9.47721L10.9991 12.1276H12.0533ZM12.6706 8.18953V7.33669H10.6789L12.078 5.10437H11.016L9.33643 7.79657L7.65829 5.10437H6.59629L7.99543 7.33669H6.00391V8.19794L12.6706 8.18953Z" fill="#CC8232"/>
<path d="M12.0514 12.1276L10.6357 9.87017H12.6686V9.01733H6.00195V9.87017H8.03487L6.61917 12.1276H7.67271L9.33519 9.47721L10.9979 12.1276H12.0514ZM12.6686 8.18953V7.33669H10.6769L12.0761 5.10437H11.0141L9.33519 7.79657L7.65633 5.10437H6.59433L7.99347 7.33669H6.00195V8.19794L12.6686 8.18953Z" fill="#CC8232"/>
<path d="M12.0494 12.1276L10.6337 9.87035H12.6661V9.01733H6V9.87035H8.03292L6.61812 12.1276H7.67166L9.33324 9.47721L10.9959 12.1276H12.0494ZM12.6661 8.18953V7.33669H10.675L12.0741 5.10437H11.0121L9.33324 7.79657L7.65438 5.10437H6.59238L7.99152 7.33669H6V8.19794L12.6661 8.18953Z" fill="#CC8232"/>
<path d="M12.0494 12.1276L10.6339 9.87017H12.6667V9.01733H6V9.87017H8.03292L6.61722 12.1276H7.67076L9.33324 9.47721L10.9959 12.1276H12.0494ZM12.6667 8.1899V7.33668H10.675L12.0739 5.10437H11.0119L9.33324 7.79657L7.65438 5.10437H6.59238L7.99152 7.33668H6V8.19794L12.6667 8.1899Z" fill="#CC8232"/>
<path d="M12.0475 12.1276L10.6318 9.87017H12.6647V9.01733H5.99805V9.87017H8.03097L6.61527 12.1276H7.66881L9.33129 9.47721L10.9938 12.1276H12.0475ZM12.6647 8.18953V7.33668H10.673L12.0721 5.10437H11.0101L9.33129 7.79657L7.65243 5.10437H6.59043L7.98957 7.33668H5.99805V8.19794L12.6647 8.18953Z" fill="#CC8232"/>
<path d="M12.0455 12.1197L10.6298 9.86237H12.6628V9.00952H5.99609V9.86237H8.02901L6.61331 12.1197H7.66685L9.32933 9.46941L10.992 12.1197H12.0455ZM12.6628 8.18173V7.32888H10.6711L12.0702 5.09656H11.0082L9.32933 7.78877L7.65047 5.09656H6.58847L7.98761 7.32888H5.99609V8.19014L12.6628 8.18173Z" fill="#CC8232"/>
<path d="M12.0436 12.1183L10.6279 9.86164H12.6608V9.0097H5.99414V9.86255H8.02706L6.61136 12.1183H7.6649L9.32738 9.46868L10.99 12.1183H12.0436ZM12.6608 8.18027V7.32742H10.6695L12.0682 5.09656H11.0062L9.32738 7.78804L7.64852 5.09656H6.58652L7.98584 7.32742H5.99414V8.18868L12.6608 8.18027Z" fill="#CC8232"/>
<path d="M12.0416 12.1197L10.6259 9.86237H12.6588V9.00952H5.99219V9.86237H8.02511L6.60941 12.1197H7.66331L9.32543 9.46941L10.9881 12.1197H12.0416ZM12.6588 8.18173V7.32888H10.6671L12.0663 5.09656H11.0043L9.32543 7.78877L7.64657 5.09656H6.58457L7.98371 7.32888H5.99219V8.18941L12.6588 8.181V8.18173Z" fill="#CC8232"/>
<path d="M12.0416 12.1119L10.6259 9.85455H12.6588V9.00171H5.99219V9.85455H8.02511L6.60941 12.1119H7.66295L9.32543 9.4616L10.9881 12.1119H12.0416ZM12.6588 8.17392V7.32106H10.6671L12.0663 5.08875H11.0043L9.32543 7.78113L7.64711 5.08875H6.58511L7.98425 7.32106H5.99219V8.18233L12.6588 8.17392Z" fill="#CC8232"/>
<path d="M12.0382 12.1119L10.6233 9.85455H12.6562V9.00171H5.99023V9.85455H8.02243L6.60673 12.1119H7.66027L9.32275 9.4616L10.9854 12.1119H12.0382ZM12.6555 8.17392V7.32106H10.6645L12.0636 5.08875H11.0016L9.32275 7.78095L7.64389 5.08875H6.58189L7.98103 7.32106H5.99023V8.18233L12.6569 8.17392H12.6555Z" fill="#CC8232"/>
<path d="M12.0358 12.1119L10.6201 9.85455H12.653V9.00171H5.98633V9.85455H8.01925L6.60355 12.1119H7.65709L9.31885 9.4616L10.9815 12.1119H12.0358ZM12.653 8.17392V7.32106H10.6613L12.0604 5.08875H10.9984L9.31885 7.78095L7.64071 5.08875H6.57871L7.97785 7.32106H5.98633V8.18233L12.653 8.17392Z" fill="#CC8232"/>
<path d="M12.0338 12.1119L10.6181 9.85455H12.651V9.00171H5.98438V9.85455H8.01729L6.60159 12.1119H7.65513L9.31762 9.4616L10.9803 12.1119H12.0338ZM12.651 8.17392V7.32106H10.6593L12.0585 5.08875H10.9965L9.31762 7.78095L7.63876 5.08875H6.57676L7.97589 7.32106H5.98438V8.18233L12.651 8.17392Z" fill="#CC8232"/>
<path d="M12.0319 12.1119L10.6162 9.85473H12.6485V9.00171H5.98242V9.85473H8.01534L6.60054 12.1119H7.65408L9.31566 9.4616L10.9783 12.1119H12.0319ZM12.6485 8.17392V7.32106H10.6574L12.0565 5.08875H10.9945L9.31566 7.78095L7.6368 5.08875H6.5748L7.97394 7.32106H5.98242V8.18233L12.6485 8.17392Z" fill="#CC8232"/>
<path d="M12.0319 12.1041L10.6163 9.84673H12.6491V8.99389H5.98242V9.84673H8.01534L6.59964 12.1041H7.65318L9.31566 9.45377L10.9783 12.1041H12.0319ZM12.6491 8.16646V7.31325H10.6574L12.0563 5.08093H10.9943L9.31566 7.77313L7.6368 5.08093H6.5748L7.97394 7.31325H5.98242V8.1745L12.6491 8.16646Z" fill="#CC8232"/>
<path d="M12.028 12.1041L10.6123 9.84673H12.6452V8.99389H5.97852V9.84673H8.01144L6.59574 12.1041H7.64928L9.31176 9.45377L10.9742 12.1041H12.028ZM12.6452 8.16609V7.31325H10.6535L12.0526 5.08093H10.9906L9.31176 7.77313L7.6329 5.08093H6.5709L7.97004 7.31325H5.97852V8.1745L12.6452 8.16609Z" fill="#CC8232"/>
<path d="M12.028 12.1041L10.6123 9.84673H12.6452V8.99389H5.97852V9.84673H8.01144L6.59574 12.1041H7.64928L9.31176 9.45377L10.9744 12.1041H12.028ZM12.6452 8.16609V7.31325H10.6535L12.0526 5.08093H10.9906L9.31176 7.77313L7.6329 5.08093H6.5709L7.97004 7.31325H5.97852V8.1745L12.6452 8.16609Z" fill="#CC8232"/>
<path d="M12.026 12.1027L10.6103 9.846H12.6432V8.99407H5.97656V9.84692H8.00948L6.59378 12.1027H7.64732L9.3098 9.45304L10.9725 12.1027H12.026ZM12.6432 8.16463V7.31178H10.6519L12.0507 5.08093H10.9887L9.3098 7.7724L7.63094 5.08093H6.56894L7.96826 7.31178H5.97656V8.17304L12.6432 8.16463Z" fill="#CC8232"/>
<path d="M12.024 12.0963L10.6083 9.83893H12.6413V8.98609H5.97461V9.83893H8.00753L6.59183 12.0963H7.64573L9.30785 9.44597L10.9705 12.0963H12.024ZM12.6413 8.15829V7.30545H10.6496L12.0487 5.07312H10.9867L9.30785 7.76533L7.62899 5.07312H6.56699L7.96613 7.30545H5.97461V8.16597L12.6413 8.15756V8.15829Z" fill="#CC8232"/>
<path d="M12.024 12.0963L10.6083 9.83893H12.6413V8.98609H5.97461V9.83893H8.00753L6.59183 12.0963H7.64537L9.30785 9.44597L10.9705 12.0963H12.024ZM12.6413 8.15829V7.30544H10.6496L12.0487 5.07312H10.9867L9.30785 7.76551L7.62953 5.07312H6.56753L7.96667 7.30544H5.97461V8.1667L12.6413 8.15829Z" fill="#CC8232"/>
<path d="M12.0207 12.0963L10.6057 9.83893H12.6386V8.98609H5.97266V9.83893H8.00486L6.58916 12.0963H7.6427L9.30518 9.44597L10.9678 12.0963H12.0207ZM12.6379 8.15829V7.30544H10.6469L12.046 5.07312H10.984L9.30518 7.76533L7.62632 5.07312H6.56432L7.96346 7.30544H5.97266V8.1667L12.6393 8.15829H12.6379Z" fill="#CC8232"/>
<path d="M12.0182 12.0963L10.6025 9.83893H12.6354V8.98609H5.96875V9.83893H8.00167L6.58597 12.0963H7.63951L9.30127 9.44597L10.9639 12.0963H12.0182ZM12.6354 8.15829V7.30545H10.6437L12.0429 5.07312H10.9809L9.30127 7.76533L7.62313 5.07312H6.56113L7.96027 7.30545H5.96875V8.1667L12.6354 8.15829Z" fill="#CC8232"/>
<path d="M12.0162 12.0963L10.6005 9.83893H12.6335V8.98609H5.9668V9.83893H7.99972L6.58402 12.0963H7.63756L9.30004 9.44597L10.9627 12.0963H12.0162ZM12.6335 8.15829V7.30545H10.6418L12.0409 5.07312H10.9789L9.30004 7.76533L7.62118 5.07312H6.55918L7.95832 7.30545H5.9668V8.1667L12.6335 8.15829Z" fill="#CC8232"/>
<path d="M12.0143 12.0885L10.5986 9.8313H12.631V8.97827H5.96484V9.8313H7.99776L6.58296 12.0885H7.6365L9.29808 9.43816L10.9607 12.0885H12.0143ZM12.631 8.15048V7.29763H10.6398L12.0389 5.06531H10.9769L9.29808 7.75752L7.61922 5.06531H6.55722L7.95636 7.29763H5.96484V8.15889L12.631 8.15048Z" fill="#CC8232"/>
<path d="M12.0123 12.0885L10.5968 9.83112H12.6296V8.97827H5.96289V9.83112H7.99581L6.58011 12.0885H7.63365L9.29613 9.43816L10.9588 12.0885H12.0123ZM12.6296 8.15084V7.29763H10.6379L12.0368 5.06531H10.9748L9.29613 7.75752L7.61727 5.06531H6.55527L7.95441 7.29763H5.96289V8.15889L12.6296 8.15084Z" fill="#CC8232"/>
<path d="M12.0104 12.0885L10.5947 9.83112H12.6276V8.97827H5.96094V9.83112H7.99386L6.57816 12.0885H7.6317L9.29418 9.43816L10.9567 12.0885H12.0104ZM12.6276 8.15048V7.29763H10.6359L12.035 5.06531H10.973L9.29418 7.75752L7.61532 5.06531H6.55332L7.95246 7.29763H5.96094V8.15889L12.6276 8.15048Z" fill="#CC8232"/>
<path d="M12.0104 12.0807L10.5947 9.8233H12.6276V8.97045H5.96094V9.8233H7.99386L6.57816 12.0807H7.6317L9.29418 9.43035L10.9568 12.0807H12.0104ZM12.6276 8.14266V7.28981H10.6359L12.035 5.0575H10.973L9.29418 7.7497L7.61532 5.0575H6.55332L7.95246 7.28981H5.96094V8.15107L12.6276 8.14266Z" fill="#CC8232"/>
<path d="M12.0084 12.0792L10.5927 9.82257H12.6256V8.97064H5.95898V9.82348H7.9919L6.5762 12.0792H7.62974L9.29222 9.42961L10.9549 12.0792H12.0084ZM12.6256 8.1412V7.28836H10.6343L12.0331 5.0575H10.9711L9.29222 7.74897L7.61336 5.0575H6.55136L7.95068 7.28836H5.95898V8.1496L12.6256 8.1412Z" fill="#CC8232"/>
<path d="M12.0065 12.0807L10.5908 9.8233H12.6237V8.97045H5.95703V9.8233H7.98995L6.57425 12.0807H7.62815L9.29027 9.43035L10.9529 12.0807H12.0065ZM12.6237 8.14266V7.28981H10.632L12.0311 5.0575H10.9691L9.29027 7.7497L7.61141 5.0575H6.54941L7.94855 7.28981H5.95703V8.15034L12.6237 8.14192V8.14266Z" fill="#CC8232"/>
<path d="M12.0026 12.0807L10.5869 9.8233H12.6198V8.97045H5.95312V9.8233H7.98605L6.57035 12.0807H7.62389L9.28638 9.43035L10.949 12.0807H12.0026ZM12.6198 8.14266V7.28981H10.6281L12.0272 5.0575H10.9652L9.28638 7.74988L7.60805 5.0575H6.54605L7.94519 7.28981H5.95312V8.15107L12.6198 8.14266Z" fill="#CC8232"/>
<path d="M11.9992 12.0807L10.5842 9.8233H12.6171V8.97045H5.95117V9.8233H7.98337L6.56767 12.0807H7.62121L9.28369 9.43035L10.9464 12.0807H11.9992ZM12.6164 8.14266V7.28981H10.6254L12.0246 5.0575H10.9626L9.28369 7.7497L7.60483 5.0575H6.54283L7.94197 7.28981H5.95117V8.15107L12.6178 8.14266H12.6164Z" fill="#CC8232"/>
<path d="M11.9987 12.0729L10.583 9.81548H12.6159V8.96264H5.94922V9.81548H7.98214L6.56644 12.0729H7.61998L9.28174 9.42252L10.9444 12.0729H11.9987ZM12.6159 8.13484V7.282H10.6242L12.0233 5.04968H10.9613L9.28174 7.74188L7.6036 5.04968H6.5416L7.94074 7.282H5.94922V8.14325L12.6159 8.13484Z" fill="#CC8232"/>
<path d="M11.9967 12.0729L10.581 9.81548H12.6139V8.96264H5.94727V9.81548H7.98019L6.56449 12.0729H7.61803L9.28051 9.42252L10.9432 12.0729H11.9967ZM12.6139 8.13484V7.282H10.6222L12.0214 5.04968H10.9594L9.28051 7.74188L7.60165 5.04968H6.53965L7.93879 7.282H5.94727V8.14326L12.6139 8.13484Z" fill="#CC8232"/>
<path d="M11.9967 12.0729L10.581 9.81567H12.6134V8.96264H5.94727V9.81567H7.98019L6.56539 12.0729H7.61893L9.28051 9.42252L10.9432 12.0729H11.9967ZM12.6134 8.13484V7.282H10.6222L12.0214 5.04968H10.9594L9.28051 7.74188L7.60165 5.04968H6.53965L7.93879 7.282H5.94727V8.14326L12.6134 8.13484Z" fill="#CC8232"/>
<path d="M11.9948 12.0729L10.5792 9.81548H12.612V8.96264H5.94531V9.81548H7.97823L6.56253 12.0729H7.61607L9.27855 9.42252L10.9412 12.0729H11.9948ZM12.612 8.13521V7.282H10.6203L12.0192 5.04968H10.9572L9.27855 7.74188L7.59969 5.04968H6.53769L7.93683 7.282H5.94531V8.14325L12.612 8.13521Z" fill="#CC8232"/>
<path d="M11.9928 12.0651L10.5771 9.80767H12.61V8.95483H5.94336V9.80767H7.97628L6.56058 12.0651H7.61412L9.2766 9.41471L10.9391 12.0651H11.9928ZM12.61 8.12703V7.27418H10.6183L12.0175 5.04187H10.9555L9.2766 7.73407L7.59774 5.04187H6.53574L7.93488 7.27418H5.94336V8.13544L12.61 8.12703Z" fill="#CC8232"/>
<path d="M11.9908 12.0651L10.5751 9.80767H12.6081V8.95483H5.94141V9.80767H7.97433L6.55863 12.0651H7.61217L9.27465 9.41471L10.9373 12.0651H11.9908ZM12.6081 8.12703V7.27419H10.6164L12.0155 5.04187H10.9535L9.27465 7.73407L7.59579 5.04187H6.53379L7.93293 7.27419H5.94141V8.13544L12.6081 8.12703Z" fill="#CC8232"/>
<path d="M11.9908 12.0636L10.5751 9.80694H12.6081V8.95501H5.94141V9.80785H7.97433L6.55863 12.0636H7.61217L9.27465 9.41398L10.9373 12.0636H11.9908ZM12.6081 8.12557V7.27272H10.6167L12.0155 5.04187H10.9535L9.27465 7.73334L7.59579 5.04187H6.53379L7.93311 7.27272H5.94141V8.13398L12.6081 8.12557Z" fill="#CC8232"/>
<path d="M11.9889 12.0651L10.5732 9.80767H12.6061V8.95483H5.93945V9.80767H7.97237L6.55667 12.0651H7.61057L9.27269 9.41471L10.9354 12.0651H11.9889ZM12.6061 8.12703V7.27419H10.6144L12.0136 5.04187H10.9516L9.27269 7.73407L7.59383 5.04187H6.53183L7.93097 7.27419H5.93945V8.13471L12.6061 8.1263V8.12703Z" fill="#CC8232"/>
<path d="M11.9869 12.0651L10.5712 9.80767H12.6042V8.95483H5.9375V9.80767H7.97042L6.55472 12.0651H7.60826L9.27074 9.41471L10.9334 12.0651H11.9869ZM12.6042 8.12703V7.27418H10.6125L12.0116 5.04187H10.9496L9.27074 7.73425L7.59242 5.04187H6.53042L7.92956 7.27418H5.9375V8.13544L12.6042 8.12703Z" fill="#CC8232"/>
<path d="M11.9816 12.0572L10.5666 9.79987H12.5995V8.94702H5.93359V9.79987H7.96579L6.55009 12.0572H7.60363L9.26611 9.40691L10.9288 12.0572H11.9816ZM12.5988 8.11923V7.26638H10.6078L12.007 5.03406H10.945L9.26611 7.72627L7.58725 5.03406H6.52525L7.92439 7.26638H5.93359V8.12764L12.6003 8.11923H12.5988Z" fill="#CC8232"/>
<path d="M11.9811 12.0572L10.5654 9.79987H12.5983V8.94702H5.93164V9.79987H7.96456L6.54886 12.0572H7.6024L9.26416 9.40691L10.9268 12.0572H11.9811ZM12.5983 8.11923V7.26638H10.6066L12.0057 5.03406H10.9437L9.26416 7.72627L7.58602 5.03406H6.52402L7.92316 7.26638H5.93164V8.12764L12.5983 8.11923Z" fill="#CC8232"/>
<path d="M11.9811 12.0572L10.5654 9.79987H12.5983V8.94702H5.93164V9.79987H7.96456L6.54886 12.0572H7.6024L9.26488 9.40691L10.9275 12.0572H11.9811ZM12.5983 8.11923V7.26638H10.6066L12.0057 5.03406H10.9437L9.26488 7.72627L7.58602 5.03406H6.52402L7.92316 7.26638H5.93164V8.12764L12.5983 8.11923Z" fill="#CC8232"/>
<path d="M11.9791 12.0494L10.5634 9.79223H12.5958V8.93921H5.92969V9.79223H7.96261L6.54781 12.0494H7.60135L9.26293 9.3991L10.9256 12.0494H11.9791ZM12.5958 8.11142V7.25856H10.6046L12.0038 5.02625H10.9418L9.26293 7.71845L7.58407 5.02625H6.52207L7.92121 7.25856H5.92969V8.11983L12.5958 8.11142Z" fill="#CC8232"/>
<path d="M11.9772 12.0494L10.5617 9.79205H12.5944V8.93921H5.92773V9.79205H7.96065L6.54495 12.0494H7.59849L9.26097 9.3991L10.9236 12.0494H11.9772ZM12.5944 8.11178V7.25856H10.6027L12.0017 5.02625H10.9397L9.26097 7.71845L7.58211 5.02625H6.52011L7.91925 7.25856H5.92773V8.11983L12.5944 8.11178Z" fill="#CC8232"/>
<path d="M11.9752 12.0494L10.5595 9.79205H12.5924V8.93921H5.92578V9.79205H7.9587L6.543 12.0494H7.59654L9.25902 9.3991L10.9215 12.0494H11.9752ZM12.5924 8.11142V7.25856H10.6007L11.9999 5.02625H10.9379L9.25902 7.71845L7.58016 5.02625H6.51816L7.9173 7.25856H5.92578V8.11983L12.5924 8.11142Z" fill="#CC8232"/>
<path d="M11.9733 12.0494L10.5576 9.79205H12.5905V8.93921H5.92383V9.79205H7.95675L6.54105 12.0494H7.59459L9.25707 9.3991L10.9197 12.0494H11.9733ZM12.5905 8.11142V7.25856H10.5988L11.9979 5.02625H10.9359L9.25707 7.71845L7.57821 5.02625H6.51621L7.91535 7.25856H5.92383V8.11983L12.5905 8.11142Z" fill="#CC8232"/>
<path d="M11.9713 12.048L10.5556 9.79132H12.5885V8.93939H5.92188V9.79223H7.95479L6.53909 12.048H7.59263L9.25512 9.39836L10.9178 12.048H11.9713ZM12.5885 8.10995V7.25711H10.5972L11.996 5.02625H10.934L9.25512 7.71772L7.57626 5.02625H6.51426L7.91356 7.25711H5.92188V8.11835L12.5885 8.10995Z" fill="#CC8232"/>
<path d="M11.9713 12.0416L10.5556 9.78423H12.5885V8.93139H5.92188V9.78423H7.95478L6.53909 12.0416H7.59299L9.25511 9.39127L10.9178 12.0416H11.9713ZM12.5885 8.10359V7.25075H10.5968L11.996 5.01843H10.934L9.25511 7.71063L7.57626 5.01843H6.51426L7.91339 7.25075H5.92188V8.11127L12.5885 8.10286V8.10359Z" fill="#CC8232"/>
<path d="M11.9674 12.0416L10.5517 9.78423H12.5846V8.93139H5.91797V9.78423H7.95089L6.53519 12.0416H7.58873L9.25121 9.39127L10.9139 12.0416H11.9674ZM12.5846 8.10359V7.25075H10.5929L11.9921 5.01843H10.9301L9.25121 7.71082L7.57289 5.01843H6.51089L7.91003 7.25075H5.91797V8.112L12.5846 8.10359Z" fill="#CC8232"/>
<path d="M11.964 12.0416L10.549 9.78423H12.582V8.93139H5.91602V9.78423H7.94822L6.53252 12.0416H7.58606L9.24854 9.39127L10.9112 12.0416H11.964ZM12.5812 8.10359V7.25075H10.5903L11.9894 5.01843H10.9274L9.24854 7.71063L7.56968 5.01843H6.50768L7.90682 7.25075H5.91602V8.112L12.5827 8.10359H12.5812Z" fill="#CC8232"/>
<path d="M11.9635 12.0416L10.5478 9.78423H12.5807V8.93139H5.91406V9.78423H7.94698L6.53128 12.0416H7.58482L9.24658 9.39127L10.9092 12.0416H11.9635ZM12.5807 8.10359V7.25075H10.589L11.9882 5.01843H10.9262L9.24658 7.71063L7.56844 5.01843H6.50644L7.90558 7.25075H5.91406V8.112L12.5807 8.10359Z" fill="#CC8232"/>
<path d="M11.9615 12.0338L10.5458 9.77643H12.5788V8.92359H5.91211V9.77643H7.94503L6.52933 12.0338H7.58287L9.24535 9.38347L10.908 12.0338H11.9615ZM12.5788 8.09579V7.24295H10.5871L11.9862 5.01062H10.9242L9.24535 7.70283L7.56649 5.01062H6.50449L7.90363 7.24295H5.91211V8.1042L12.5788 8.09579Z" fill="#CC8232"/>
<path d="M11.9615 12.0338L10.5458 9.77661H12.5782V8.92359H5.91211V9.77661H7.94503L6.53023 12.0338H7.58377L9.24535 9.38347L10.908 12.0338H11.9615ZM12.5782 8.09579V7.24295H10.5871L11.9862 5.01062H10.9242L9.24535 7.70283L7.56649 5.01062H6.50449L7.90363 7.24295H5.91211V8.1042L12.5782 8.09579Z" fill="#CC8232"/>
<path d="M11.9576 12.0338L10.5421 9.77643H12.5749V8.92359H5.9082V9.77643H7.94112L6.52542 12.0338H7.57896L9.24144 9.38347L10.9041 12.0338H11.9576ZM12.5749 8.09616V7.24294H10.5832L11.9821 5.01062H10.9201L9.24144 7.70283L7.56258 5.01062H6.50058L7.89972 7.24294H5.9082V8.1042L12.5749 8.09616Z" fill="#CC8232"/>
<path d="M11.9576 12.0338L10.5419 9.77643H12.5749V8.92359H5.9082V9.77643H7.94112L6.52542 12.0338H7.57896L9.24144 9.38347L10.9039 12.0338H11.9576ZM12.5749 8.09579V7.24294H10.5832L11.9823 5.01062H10.9203L9.24144 7.70283L7.56258 5.01062H6.50058L7.89972 7.24294H5.9082V8.1042L12.5749 8.09579Z" fill="#CC8232"/>
<path d="M11.9557 12.0338L10.54 9.77643H12.5729V8.92359H5.90625V9.77643H7.93917L6.52347 12.0338H7.57701L9.23949 9.38347L10.9021 12.0338H11.9557ZM12.5729 8.09579V7.24295H10.5812L11.9804 5.01062H10.9184L9.23949 7.70283L7.56063 5.01062H6.49863L7.89777 7.24295H5.90625V8.1042L12.5729 8.09579Z" fill="#CC8232"/>
<path d="M11.9537 12.0245L10.538 9.76789H12.571V8.91595H5.9043V9.7688H7.93722L6.52152 12.0245H7.57506L9.23754 9.37493L10.9002 12.0245H11.9537ZM12.571 8.08652V7.23367H10.5796L11.9784 5.00281H10.9164L9.23754 7.69429L7.55868 5.00281H6.49668L7.896 7.23367H5.9043V8.09493L12.571 8.08652Z" fill="#CC8232"/>
<path d="M11.9537 12.026L10.538 9.76862H12.571V8.91577H5.9043V9.76862H7.93722L6.52152 12.026H7.57542L9.23754 9.37566L10.9002 12.026H11.9537ZM12.571 8.08798V7.23513H10.5793L11.9784 5.00281H10.9164L9.23754 7.69502L7.55868 5.00281H6.49668L7.89582 7.23513H5.9043V8.09566L12.571 8.08725V8.08798Z" fill="#CC8232"/>
<path d="M11.9479 12.026L10.5322 9.76862H12.5651V8.91577H5.89844V9.76862H7.93136L6.51566 12.026H7.5692L9.23168 9.37566L10.8943 12.026H11.9479ZM12.5651 8.08798V7.23513H10.5734L11.9725 5.00281H10.9105L9.23168 7.6952L7.55336 5.00281H6.49136L7.8905 7.23513H5.89844V8.09639L12.5651 8.08798Z" fill="#CC8232"/>
<path d="M11.9464 12.0182L10.5315 9.7608H12.5644V8.90795H5.89844V9.7608H7.93064L6.51494 12.0182H7.56848L9.23096 9.36785L10.8936 12.0182H11.9464ZM12.5637 8.08016V7.22731H10.5727L11.9718 4.995H10.9098L9.23096 7.6872L7.5521 4.995H6.4901L7.88924 7.22731H5.89844V8.08857L12.5651 8.08016H12.5637Z" fill="#CC8232"/>
<path d="M11.9459 12.0182L10.5302 9.7608H12.5631V8.90795H5.89648V9.7608H7.9294L6.5137 12.0182H7.56724L9.229 9.36785L10.8917 12.0182H11.9459ZM12.5631 8.08016V7.22731H10.5714L11.9706 4.995H10.9086L9.229 7.6872L7.55086 4.995H6.48886L7.888 7.22731H5.89648V8.08857L12.5631 8.08016Z" fill="#CC8232"/>
<path d="M11.944 12.0182L10.5283 9.7608H12.5612V8.90795H5.89453V9.7608H7.92745L6.51175 12.0182H7.56529L9.22777 9.36785L10.8904 12.0182H11.944ZM12.5612 8.08016V7.22731H10.5695L11.9686 4.995H10.9066L9.22777 7.6872L7.54891 4.995H6.48691L7.88605 7.22731H5.89453V8.08857L12.5612 8.08016Z" fill="#CC8232"/>
<path d="M11.942 12.0182L10.5263 9.76098H12.5587V8.90795H5.89258V9.76098H7.9255L6.5107 12.0182H7.56424L9.22582 9.36785L10.8885 12.0182H11.942ZM12.5587 8.08016V7.22731H10.5675L11.9667 4.995H10.9047L9.22582 7.6872L7.54696 4.995H6.48496L7.8841 7.22731H5.89258V8.08857L12.5587 8.08016Z" fill="#CC8232"/>
<path d="M11.9401 12.0182L10.5245 9.7608H12.5573V8.90795H5.89062V9.7608H7.92355L6.50785 12.0182H7.56139L9.22388 9.36785L10.8865 12.0182H11.9401ZM12.5573 8.08052V7.22731H10.5656L11.9645 4.995H10.9025L9.22388 7.6872L7.54502 4.995H6.48302L7.88216 7.22731H5.89062V8.08857L12.5573 8.08052Z" fill="#CC8232"/>
<path d="M11.9401 12.0182L10.5244 9.7608H12.5573V8.90795H5.89062V9.7608H7.92354L6.50785 12.0182H7.56139L9.22388 9.36785L10.8863 12.0182H11.9401ZM12.5573 8.08016V7.22731H10.5656L11.9647 4.995H10.9027L9.22388 7.6872L7.54502 4.995H6.48302L7.88216 7.22731H5.89062V8.08857L12.5573 8.08016Z" fill="#CC8232"/>
<path d="M11.9381 12.0104L10.5224 9.75298H12.5553V8.90014H5.88867V9.75298H7.92159L6.50589 12.0104H7.55943L9.22191 9.36002L10.8846 12.0104H11.9381ZM12.5553 8.07234V7.2195H10.5636L11.9628 4.98718H10.9008L9.22191 7.67938L7.54305 4.98718H6.48105L7.88019 7.2195H5.88867V8.08075L12.5553 8.07234Z" fill="#CC8232"/>
<path d="M11.9362 12.0089L10.5205 9.75225H12.5534V8.90032H5.88672V9.75317H7.91964L6.50394 12.0089H7.55748L9.21996 9.35929L10.8826 12.0089H11.9362ZM12.5534 8.07088V7.21803H10.562L11.9608 4.98718H10.8988L9.21996 7.67865L7.5411 4.98718H6.4791L7.87842 7.21803H5.88672V8.07929L12.5534 8.07088Z" fill="#CC8232"/>
<path d="M11.9323 12.0104L10.5166 9.75298H12.5495V8.90014H5.88281V9.75298H7.91573L6.50003 12.0104H7.55393L9.21605 9.36002L10.8787 12.0104H11.9323ZM12.5495 8.07234V7.2195H10.5578L11.9569 4.98718H10.8949L9.21605 7.67938L7.53719 4.98718H6.47519L7.87433 7.2195H5.88281V8.08002L12.5495 8.07161V8.07234Z" fill="#CC8232"/>
<path d="M11.9303 12.0026L10.5146 9.74517H12.5475V8.89233H5.88086V9.74517H7.91378L6.49808 12.0026H7.55162L9.2141 9.35221L10.8768 12.0026H11.9303ZM12.5475 8.06453V7.21168H10.5558L11.955 4.97937H10.893L9.2141 7.67175L7.53578 4.97937H6.47378L7.87292 7.21168H5.88086V8.07294L12.5475 8.06453Z" fill="#CC8232"/>
<path d="M11.9289 12.0026L10.5139 9.74517H12.5468V8.89233H5.88086V9.74517H7.91306L6.49736 12.0026H7.5509L9.21338 9.35221L10.876 12.0026H11.9289ZM12.5461 8.06453V7.21168H10.5551L11.9542 4.97937H10.8922L9.21338 7.67157L7.53452 4.97937H6.47252L7.87166 7.21168H5.88086V8.07294L12.5475 8.06453H12.5461Z" fill="#CC8232"/>
<path d="M11.9283 12.0026L10.5126 9.74517H12.5456V8.89233H5.87891V9.74517H7.91183L6.49613 12.0026H7.54967L9.21143 9.35221L10.8741 12.0026H11.9283ZM12.5456 8.06453V7.21169H10.5539L11.953 4.97937H10.891L9.21143 7.67157L7.53329 4.97937H6.47129L7.87043 7.21169H5.87891V8.07294L12.5456 8.06453Z" fill="#CC8232"/>
<path d="M11.9264 12.0026L10.5107 9.74517H12.5436V8.89233H5.87695V9.74517H7.90987L6.49417 12.0026H7.54771L9.21019 9.35221L10.8729 12.0026H11.9264ZM12.5436 8.06453V7.21169H10.5519L11.9511 4.97937H10.8891L9.21019 7.67157L7.53133 4.97937H6.46933L7.86847 7.21169H5.87695V8.07294L12.5436 8.06453Z" fill="#CC8232"/>
<path d="M11.9244 12.0026L10.5087 9.74535H12.5411V8.89233H5.875V9.74535H7.90792L6.49312 12.0026H7.54666L9.20824 9.35221L10.8709 12.0026H11.9244ZM12.5411 8.06453V7.21169H10.55L11.9491 4.97937H10.8871L9.20824 7.67157L7.52938 4.97937H6.46738L7.86652 7.21169H5.875V8.07294L12.5411 8.06453Z" fill="#CC8232"/>
<path d="M11.9225 11.9947L10.507 9.73737H12.5397V8.88452H5.87305V9.73737H7.90597L6.49027 11.9947H7.54381L9.20629 9.34441L10.8689 11.9947H11.9225ZM12.5397 8.05709V7.20388H10.548L11.947 4.97156H10.885L9.20629 7.66377L7.52743 4.97156H6.46543L7.86457 7.20388H5.87305V8.06514L12.5397 8.05709Z" fill="#CC8232"/>
<path d="M11.9205 11.9947L10.5048 9.73737H12.5378V8.88452H5.87109V9.73737H7.90401L6.48831 11.9947H7.54185L9.20433 9.34441L10.8668 11.9947H11.9205ZM12.5378 8.05673V7.20388H10.5461L11.9452 4.97156H10.8832L9.20433 7.66377L7.52547 4.97156H6.46347L7.86261 7.20388H5.87109V8.06514L12.5378 8.05673Z" fill="#CC8232"/>
<path d="M11.9205 11.9947L10.5048 9.73737H12.5378V8.88452H5.87109V9.73737H7.90401L6.48831 11.9947H7.54185L9.20433 9.34441L10.867 11.9947H11.9205ZM12.5378 8.05673V7.20388H10.5461L11.9452 4.97156H10.8832L9.20433 7.66377L7.52547 4.97156H6.46347L7.86261 7.20388H5.87109V8.06514L12.5378 8.05673Z" fill="#CC8232"/>
<path d="M11.9186 11.9933L10.5029 9.73664H12.5358V8.8847H5.86914V9.73755H7.90206L6.48636 11.9933H7.5399L9.20238 9.34368L10.865 11.9933H11.9186ZM12.5358 8.05527V7.20242H10.5445L11.9432 4.97156H10.8812L9.20238 7.66304L7.52352 4.97156H6.46152L7.86084 7.20242H5.86914V8.06368L12.5358 8.05527Z" fill="#CC8232"/>
<path d="M11.9147 11.9869L10.499 9.72955H12.5319V8.87671H5.86523V9.72955H7.89815L6.48245 11.9869H7.53635L9.19847 9.3366L10.8611 11.9869H11.9147ZM12.5319 8.04892V7.19606H10.5402L11.9393 4.96375H10.8773L9.19847 7.65595L7.51961 4.96375H6.45761L7.85675 7.19606H5.86523V8.05659L12.5319 8.04818V8.04892Z" fill="#CC8232"/>
<path d="M11.9127 11.9869L10.497 9.72955H12.5299V8.87671H5.86328V9.72955H7.8962L6.4805 11.9869H7.53404L9.19652 9.3366L10.8592 11.9869H11.9127ZM12.5299 8.04892V7.19606H10.5382L11.9374 4.96375H10.8754L9.19652 7.65613L7.5182 4.96375H6.4562L7.85534 7.19606H5.86328V8.05733L12.5299 8.04892Z" fill="#CC8232"/>
<path d="M11.9113 11.9869L10.4963 9.72955H12.5292V8.87671H5.86328V9.72955H7.89548L6.47978 11.9869H7.53332L9.1958 9.3366L10.8585 11.9869H11.9113ZM12.5285 8.04892V7.19606H10.5375L11.9367 4.96375H10.8747L9.1958 7.65595L7.51694 4.96375H6.45494L7.85408 7.19606H5.86328V8.05733L12.5299 8.04892H12.5285Z" fill="#CC8232"/>
<path d="M11.9108 11.9869L10.4951 9.72955H12.528V8.87671H5.86133V9.72955H7.89425L6.47855 11.9869H7.53209L9.19385 9.3366L10.8565 11.9869H11.9108ZM12.528 8.04892V7.19606H10.5363L11.9354 4.96375H10.8734L9.19385 7.65595L7.51571 4.96375H6.45371L7.85285 7.19606H5.86133V8.05733L12.528 8.04892Z" fill="#CC8232"/>
<path d="M11.9088 11.9869L10.4931 9.72955H12.526V8.87671H5.85938V9.72955H7.89229L6.47659 11.9869H7.53013L9.19262 9.3366L10.8553 11.9869H11.9088ZM12.526 8.04892V7.19606H10.5343L11.9335 4.96375H10.8715L9.19262 7.65595L7.51376 4.96375H6.45176L7.85089 7.19606H5.85938V8.05733L12.526 8.04892Z" fill="#CC8232"/>
<path d="M11.9069 11.9791L10.4912 9.72192H12.5235V8.86889H5.85742V9.72192H7.89034L6.47554 11.9791H7.52908L9.19066 9.32877L10.8533 11.9791H11.9069ZM12.5235 8.04109V7.18825H10.5324L11.9315 4.95593H10.8695L9.19066 7.64813L7.5118 4.95593H6.4498L7.84894 7.18825H5.85742V8.04951L12.5235 8.04109Z" fill="#CC8232"/>
<path d="M11.9049 11.9791L10.4894 9.72173H12.5221V8.86889H5.85547V9.72173H7.88839L6.47269 11.9791H7.52623L9.18871 9.32877L10.8514 11.9791H11.9049ZM12.5221 8.04146V7.18825H10.5304L11.9294 4.95593H10.8674L9.18871 7.64813L7.50985 4.95593H6.44785L7.84699 7.18825H5.85547V8.0495L12.5221 8.04146Z" fill="#CC8232"/>
<path d="M11.903 11.9791L10.4873 9.72173H12.5202V8.86889H5.85352V9.72173H7.88644L6.47074 11.9791H7.52428L9.18676 9.32877L10.8492 11.9791H11.903ZM12.5202 8.04109V7.18825H10.5285L11.9276 4.95593H10.8656L9.18676 7.64813L7.5079 4.95593H6.4459L7.84504 7.18825H5.85352V8.0495L12.5202 8.04109Z" fill="#CC8232"/>
<path d="M11.901 11.9713L10.4853 9.71393H12.5182V8.86109H5.85156V9.71393H7.88448L6.46878 11.9713H7.52232L9.1848 9.32097L10.8475 11.9713H11.901ZM12.5182 8.03329V7.18045H10.5265L11.9257 4.94812H10.8637L9.1848 7.64033L7.50594 4.94812H6.44394L7.84308 7.18045H5.85156V8.0417L12.5182 8.03329Z" fill="#CC8232"/>
<path d="M11.901 11.9698L10.4853 9.7132H12.5182V8.86127H5.85156V9.71411H7.88448L6.46878 11.9698H7.52232L9.1848 9.32024L10.8475 11.9698H11.901ZM12.5182 8.03183V7.17898H10.5269L11.9257 4.94812H10.8637L9.1848 7.6396L7.50594 4.94812H6.44394L7.84326 7.17898H5.85156V8.04024L12.5182 8.03183Z" fill="#CC8232"/>
<path d="M11.8971 11.9713L10.4814 9.71393H12.5143V8.86109H5.84766V9.71393H7.88058L6.46488 11.9713H7.51878L9.1809 9.32097L10.8436 11.9713H11.8971ZM12.5143 8.03329V7.18045H10.5226L11.9218 4.94812H10.8598L9.1809 7.64033L7.50204 4.94812H6.44004L7.83918 7.18045H5.84766V8.04097L12.5143 8.03256V8.03329Z" fill="#CC8232"/>
<path d="M11.8951 11.9713L10.4794 9.71393H12.5124V8.86109H5.8457V9.71393H7.87862L6.46292 11.9713H7.51646L9.17894 9.32097L10.8416 11.9713H11.8951ZM12.5124 8.03329V7.18044H10.5207L11.9198 4.94812H10.8578L9.17894 7.64051L7.50062 4.94812H6.43862L7.83776 7.18044H5.8457V8.0417L12.5124 8.03329Z" fill="#CC8232"/>
<path d="M11.8918 11.9713L10.4768 9.71393H12.5097V8.86109H5.84375V9.71393H7.87595L6.46025 11.9713H7.51379L9.17627 9.32097L10.8389 11.9713H11.8918ZM12.509 8.03329V7.18044H10.518L11.9171 4.94812H10.8551L9.17627 7.64033L7.49741 4.94812H6.43541L7.83455 7.18044H5.84375V8.0417L12.5104 8.03329H12.509Z" fill="#CC8232"/>
<path d="M11.8912 11.9635L10.4755 9.70612H12.5085V8.85327H5.8418V9.70612H7.87472L6.45902 11.9635H7.51256L9.17432 9.31316L10.837 11.9635H11.8912ZM12.5085 8.02548V7.17263H10.5168L11.9159 4.94031H10.8539L9.17432 7.63252L7.49618 4.94031H6.43418L7.83332 7.17263H5.8418V8.03389L12.5085 8.02548Z" fill="#CC8232"/>
<path d="M11.8912 11.9635L10.4755 9.70612H12.5085V8.85327H5.8418V9.70612H7.87472L6.45902 11.9635H7.51256L9.17504 9.31316L10.8377 11.9635H11.8912ZM12.5085 8.02548V7.17263H10.5168L11.9159 4.94031H10.8539L9.17504 7.63252L7.49618 4.94031H6.43418L7.83332 7.17263H5.8418V8.03389L12.5085 8.02548Z" fill="#CC8232"/>
<path d="M11.8873 11.9635L10.4716 9.7063H12.504V8.85327H5.83789V9.7063H7.87081L6.45601 11.9635H7.50955L9.17113 9.31316L10.8338 11.9635H11.8873ZM12.504 8.02548V7.17263H10.5129L11.912 4.94031H10.85L9.17113 7.63252L7.49227 4.94031H6.43027L7.82941 7.17263H5.83789V8.03389L12.504 8.02548Z" fill="#CC8232"/>
<path d="M11.8873 11.9635L10.4718 9.70612H12.5046V8.85327H5.83789V9.70612H7.87081L6.45511 11.9635H7.50865L9.17113 9.31316L10.8338 11.9635H11.8873ZM12.5046 8.02584V7.17263H10.5129L11.9118 4.94031H10.8498L9.17113 7.63252L7.49227 4.94031H6.43027L7.82941 7.17263H5.83789V8.03389L12.5046 8.02584Z" fill="#CC8232"/>
<path d="M11.8854 11.9557L10.4697 9.6983H12.5026V8.84545H5.83594V9.6983H7.86886L6.45316 11.9557H7.5067L9.16918 9.30535L10.8317 11.9557H11.8854ZM12.5026 8.01766V7.16481H10.5109L11.91 4.9325H10.848L9.16918 7.6247L7.49032 4.9325H6.42832L7.82746 7.16481H5.83594V8.02607L12.5026 8.01766Z" fill="#CC8232"/>
<path d="M11.8834 11.9557L10.4677 9.6983H12.5006V8.84545H5.83398V9.6983H7.8669L6.4512 11.9557H7.50474L9.16722 9.30535L10.8299 11.9557H11.8834ZM12.5006 8.01766V7.16481H10.5089L11.9081 4.9325H10.8461L9.16722 7.6247L7.48836 4.9325H6.42636L7.8255 7.16481H5.83398V8.02607L12.5006 8.01766Z" fill="#CC8232"/>
<path d="M11.8834 11.9542L10.4677 9.69757H12.5006V8.84564H5.83398V9.69848H7.8669L6.4512 11.9542H7.50474L9.16722 9.30461L10.8299 11.9542H11.8834ZM12.5006 8.0162V7.16336H10.5093L11.9081 4.9325H10.8461L9.16722 7.62397L7.48836 4.9325H6.42636L7.82568 7.16336H5.83398V8.0246L12.5006 8.0162Z" fill="#CC8232"/>
<path d="M11.8776 11.9557L10.4619 9.6983H12.4948V8.84545H5.82812V9.6983H7.86104L6.44535 11.9557H7.49925L9.16137 9.30535L10.824 11.9557H11.8776ZM12.4948 8.01766V7.16481H10.5031L11.9022 4.9325H10.8402L9.16137 7.6247L7.48252 4.9325H6.42052L7.81965 7.16481H5.82812V8.02534L12.4948 8.01692V8.01766Z" fill="#CC8232"/>
<path d="M11.8776 11.9557L10.4619 9.6983H12.4948V8.84545H5.82812V9.6983H7.86105L6.44535 11.9557H7.49889L9.16138 9.30535L10.824 11.9557H11.8776ZM12.4948 8.01766V7.16481H10.5031L11.9022 4.9325H10.8402L9.16138 7.62488L7.48305 4.9325H6.42105L7.82019 7.16481H5.82812V8.02607L12.4948 8.01766Z" fill="#CC8232"/>
<path d="M11.8742 11.9479L10.4592 9.69048H12.4921V8.83764H5.82617V9.69048H7.85837L6.44267 11.9479H7.49621L9.15869 9.29752L10.8214 11.9479H11.8742ZM12.4914 8.00984V7.157H10.5004L11.8996 4.92468H10.8376L9.15869 7.61688L7.47983 4.92468H6.41783L7.81697 7.157H5.82617V8.01825L12.4928 8.00984H12.4914Z" fill="#CC8232"/>
<path d="M11.8737 11.9479L10.458 9.69048H12.4909V8.83764H5.82422V9.69048H7.85714L6.44144 11.9479H7.49498L9.15674 9.29752L10.8194 11.9479H11.8737ZM12.4909 8.00984V7.157H10.4992L11.8983 4.92468H10.8363L9.15674 7.61688L7.4786 4.92468H6.4166L7.81574 7.157H5.82422V8.01825L12.4909 8.00984Z" fill="#CC8232"/>
<path d="M11.8737 11.9479L10.458 9.69048H12.4909V8.83764H5.82422V9.69048H7.85714L6.44144 11.9479H7.49498L9.15746 9.29752L10.8201 11.9479H11.8737ZM12.4909 8.00984V7.157H10.4992L11.8983 4.92468H10.8363L9.15746 7.61688L7.4786 4.92468H6.4166L7.81574 7.157H5.82422V8.01826L12.4909 8.00984Z" fill="#CC8232"/>
<path d="M11.8698 11.9401L10.4541 9.68285H12.4864V8.82983H5.82031V9.68285H7.85323L6.43843 11.9401H7.49197L9.15355 9.28971L10.8162 11.9401H11.8698ZM12.4864 8.00203V7.14919H10.4953L11.8944 4.91687H10.8324L9.15355 7.60907L7.47469 4.91687H6.41269L7.81183 7.14919H5.82031V8.01044L12.4864 8.00203Z" fill="#CC8232"/>
<path d="M11.8698 11.9401L10.4542 9.68267H12.487V8.82983H5.82031V9.68267H7.85323L6.43753 11.9401H7.49107L9.15355 9.28971L10.8162 11.9401H11.8698ZM12.487 8.0024V7.14918H10.4953L11.8942 4.91687H10.8322L9.15355 7.60907L7.47469 4.91687H6.41269L7.81183 7.14918H5.82031V8.01044L12.487 8.0024Z" fill="#CC8232"/>
<path d="M11.8678 11.9401L10.4521 9.68267H12.485V8.82983H5.81836V9.68267H7.85128L6.43558 11.9401H7.48912L9.1516 9.28971L10.8141 11.9401H11.8678ZM12.485 8.00203V7.14918H10.4933L11.8925 4.91687H10.8305L9.1516 7.60907L7.47274 4.91687H6.41074L7.80988 7.14918H5.81836V8.01044L12.485 8.00203Z" fill="#CC8232"/>
<path d="M11.8658 11.9401L10.4501 9.68267H12.4831V8.82983H5.81641V9.68267H7.84933L6.43363 11.9401H7.48717L9.14965 9.28971L10.8123 11.9401H11.8658ZM12.4831 8.00203V7.14919H10.4914L11.8905 4.91687H10.8285L9.14965 7.60907L7.47079 4.91687H6.40879L7.80793 7.14919H5.81641V8.01044L12.4831 8.00203Z" fill="#CC8232"/>
<path d="M11.8619 11.9386L10.4462 9.68194H12.4792V8.83001H5.8125V9.68285H7.84542L6.42972 11.9386H7.48326L9.14574 9.28898L10.8084 11.9386H11.8619ZM12.4792 8.00057V7.14772H10.4878L11.8866 4.91687H10.8246L9.14574 7.60834L7.46688 4.91687H6.40488L7.8042 7.14772H5.8125V8.00898L12.4792 8.00057Z" fill="#CC8232"/>
<path d="M11.86 11.9322L10.4443 9.67487H12.4772V8.82202H5.81055V9.67487H7.84347L6.42777 11.9322H7.48167L9.14379 9.28191L10.8064 11.9322H11.86ZM12.4772 7.99423V7.14138H10.4855L11.8846 4.90906H10.8226L9.14379 7.60127L7.46493 4.90906H6.40293L7.80207 7.14138H5.81055V8.00191L12.4772 7.9935V7.99423Z" fill="#CC8232"/>
<path d="M11.86 11.9322L10.4443 9.67487H12.4772V8.82202H5.81055V9.67487H7.84347L6.42777 11.9322H7.48131L9.14379 9.28191L10.8064 11.9322H11.86ZM12.4772 7.99423V7.14138H10.4855L11.8846 4.90906H10.8226L9.14379 7.60145L7.46547 4.90906H6.40347L7.80261 7.14138H5.81055V8.00264L12.4772 7.99423Z" fill="#CC8232"/>
<path d="M11.8566 11.9322L10.4416 9.67487H12.4745V8.82202H5.80859V9.67487H7.84079L6.42509 11.9322H7.47863L9.14111 9.28191L10.8038 11.9322H11.8566ZM12.4738 7.99423V7.14138H10.4828L11.882 4.90906H10.82L9.14111 7.60127L7.46225 4.90906H6.40025L7.79939 7.14138H5.80859V8.00264L12.4753 7.99423H12.4738Z" fill="#CC8232"/>
<path d="M11.8561 11.9322L10.4404 9.67487H12.4733V8.82202H5.80664V9.67487H7.83956L6.42386 11.9322H7.4774L9.13916 9.28191L10.8018 11.9322H11.8561ZM12.4733 7.99423V7.14138H10.4816L11.8807 4.90906H10.8187L9.13916 7.60127L7.46102 4.90906H6.39902L7.79816 7.14138H5.80664V8.00264L12.4733 7.99423Z" fill="#CC8232"/>
<path d="M11.8541 11.9244L10.4384 9.66705H12.4713V8.81421H5.80469V9.66705H7.83761L6.42191 11.9244H7.47545L9.13793 9.2741L10.8006 11.9244H11.8541ZM12.4713 7.98642V7.13356H10.4796L11.8788 4.90125H10.8168L9.13793 7.59345L7.45907 4.90125H6.39707L7.79621 7.13356H5.80469V7.99483L12.4713 7.98642Z" fill="#CC8232"/>
<path d="M11.8522 11.9244L10.4365 9.66723H12.4689V8.81421H5.80273V9.66723H7.83565L6.42085 11.9244H7.47439L9.13597 9.2741L10.7986 11.9244H11.8522ZM12.4689 7.98642V7.13356H10.4777L11.8768 4.90125H10.8148L9.13597 7.59345L7.45711 4.90125H6.39511L7.79425 7.13356H5.80273V7.99483L12.4689 7.98642Z" fill="#CC8232"/>
<path d="M11.8502 11.9244L10.4347 9.66705H12.4674V8.81421H5.80078V9.66705H7.8337L6.418 11.9244H7.47154L9.13402 9.2741L10.7967 11.9244H11.8502ZM12.4674 7.98678V7.13356H10.4757L11.8747 4.90125H10.8127L9.13402 7.59345L7.45516 4.90125H6.39316L7.7923 7.13356H5.80078V7.99483L12.4674 7.98678Z" fill="#CC8232"/>
<path d="M11.8502 11.9244L10.4345 9.66705H12.4674V8.81421H5.80078V9.66705H7.8337L6.418 11.9244H7.47154L9.13402 9.2741L10.7965 11.9244H11.8502ZM12.4674 7.98642V7.13356H10.4757L11.8749 4.90125H10.8129L9.13402 7.59345L7.45516 4.90125H6.39316L7.7923 7.13356H5.80078V7.99483L12.4674 7.98642Z" fill="#CC8232"/>
<path d="M11.8483 11.9244L10.4326 9.66705H12.4655V8.81421H5.79883V9.66705H7.83175L6.41605 11.9244H7.46959L9.13207 9.2741L10.7947 11.9244H11.8483ZM12.4655 7.98642V7.13356H10.4738L11.8729 4.90125H10.8109L9.13207 7.59345L7.45321 4.90125H6.39121L7.79035 7.13356H5.79883V7.99483L12.4655 7.98642Z" fill="#CC8232"/>
<path d="M11.8463 11.9152L10.4306 9.6585H12.4635V8.80657H5.79688V9.65942H7.82979L6.41409 11.9152H7.46763L9.13012 9.26554L10.7928 11.9152H11.8463ZM12.4635 7.97713V7.12428H10.4722L11.871 4.89343H10.809L9.13012 7.5849L7.45126 4.89343H6.38926L7.78856 7.12428H5.79688V7.98554L12.4635 7.97713Z" fill="#CC8232"/>
<path d="M11.8424 11.9166L10.4267 9.65923H12.4596V8.80639H5.79297V9.65923H7.82589L6.41019 11.9166H7.46409L9.12621 9.26627L10.7889 11.9166H11.8424ZM12.4596 7.97859V7.12575H10.4679L11.8671 4.89343H10.8051L9.12621 7.58563L7.44735 4.89343H6.38535L7.78449 7.12575H5.79297V7.98627L12.4596 7.97786V7.97859Z" fill="#CC8232"/>
<path d="M11.8405 11.9166L10.4248 9.65923H12.4577V8.80639H5.79102V9.65923H7.82394L6.40824 11.9166H7.46178L9.12426 9.26627L10.7869 11.9166H11.8405ZM12.4577 7.97859V7.12575H10.466L11.8651 4.89343H10.8031L9.12426 7.58582L7.44594 4.89343H6.38394L7.78308 7.12575H5.79102V7.987L12.4577 7.97859Z" fill="#CC8232"/>
<path d="M11.839 11.9088L10.424 9.65143H12.457V8.79859H5.79102V9.65143H7.82322L6.40752 11.9088H7.46106L9.12354 9.25847L10.7862 11.9088H11.839ZM12.4562 7.97079V7.11794H10.4653L11.8644 4.88562H10.8024L9.12354 7.57783L7.44468 4.88562H6.38268L7.78182 7.11794H5.79102V7.9792L12.4577 7.97079H12.4562Z" fill="#CC8232"/>
<path d="M11.8385 11.9088L10.4228 9.65143H12.4557V8.79859H5.78906V9.65143H7.82198L6.40628 11.9088H7.45982L9.12158 9.25847L10.7842 11.9088H11.8385ZM12.4557 7.97079V7.11795H10.464L11.8632 4.88562H10.8012L9.12158 7.57783L7.44344 4.88562H6.38144L7.78058 7.11795H5.78906V7.9792L12.4557 7.97079Z" fill="#CC8232"/>
<path d="M11.8365 11.9088L10.4208 9.65143H12.4538V8.79859H5.78711V9.65143H7.82003L6.40433 11.9088H7.45787L9.12035 9.25847L10.783 11.9088H11.8365ZM12.4538 7.97079V7.11795H10.4621L11.8612 4.88562H10.7992L9.12035 7.57783L7.44149 4.88562H6.37949L7.77863 7.11795H5.78711V7.9792L12.4538 7.97079Z" fill="#CC8232"/>
<path d="M11.8346 11.9088L10.4189 9.65161H12.4513V8.79859H5.78516V9.65161H7.81808L6.40328 11.9088H7.45682L9.1184 9.25847L10.7811 11.9088H11.8346ZM12.4513 7.97079V7.11795H10.4601L11.8593 4.88562H10.7973L9.1184 7.57783L7.43954 4.88562H6.37754L7.77668 7.11795H5.78516V7.9792L12.4513 7.97079Z" fill="#CC8232"/>
<path d="M11.8326 11.9088L10.4171 9.65143H12.4499V8.79859H5.7832V9.65143H7.81612L6.40042 11.9088H7.45396L9.11644 9.25847L10.7791 11.9088H11.8326ZM12.4499 7.97116V7.11794H10.4582L11.8571 4.88562H10.7951L9.11644 7.57783L7.43758 4.88562H6.37558L7.77472 7.11794H5.7832V7.9792L12.4499 7.97116Z" fill="#CC8232"/>
<path d="M11.8326 11.901L10.4169 9.64362H12.4499V8.79077H5.7832V9.64362H7.81612L6.40042 11.901H7.45396L9.11644 9.25066L10.7789 11.901H11.8326ZM12.4499 7.96298V7.11013H10.4582L11.8573 4.87781H10.7953L9.11644 7.57002L7.43758 4.87781H6.37558L7.77472 7.11013H5.7832V7.97139L12.4499 7.96298Z" fill="#CC8232"/>
<path d="M11.8307 11.901L10.415 9.64362H12.4479V8.79077H5.78125V9.64362H7.81417L6.39847 11.901H7.45201L9.11449 9.25066L10.7771 11.901H11.8307ZM12.4479 7.96298V7.11013H10.4562L11.8554 4.87781H10.7934L9.11449 7.57002L7.43563 4.87781H6.37363L7.77277 7.11013H5.78125V7.97139L12.4479 7.96298Z" fill="#CC8232"/>
<path d="M11.8268 11.8995L10.4111 9.64289H12.444V8.79095H5.77734V9.6438H7.81026L6.39456 11.8995H7.4481L9.11058 9.24993L10.7732 11.8995H11.8268ZM12.444 7.96152V7.10867H10.4527L11.8514 4.87781H10.7894L9.11058 7.56929L7.43172 4.87781H6.36972L7.76904 7.10867H5.77734V7.96993L12.444 7.96152Z" fill="#CC8232"/>
<path d="M11.8248 11.901L10.4091 9.64362H12.4421V8.79077H5.77539V9.64362H7.80831L6.39261 11.901H7.44651L9.10863 9.25066L10.7713 11.901H11.8248ZM12.4421 7.96298V7.11013H10.4504L11.8495 4.87781H10.7875L9.10863 7.57002L7.42977 4.87781H6.36777L7.76691 7.11013H5.77539V7.97066L12.4421 7.96225V7.96298Z" fill="#CC8232"/>
<path d="M11.8229 11.8932L10.4072 9.6358H12.4401V8.78295H5.77344V9.6358H7.80636L6.39066 11.8932H7.4442L9.10668 9.24285L10.7693 11.8932H11.8229ZM12.4401 7.95516V7.10231H10.4484L11.8475 4.87H10.7855L9.10668 7.56238L7.42836 4.87H6.36636L7.7655 7.10231H5.77344V7.96357L12.4401 7.95516Z" fill="#CC8232"/>
<path d="M11.8214 11.8932L10.4065 9.6358H12.4394V8.78295H5.77344V9.6358H7.80564L6.38994 11.8932H7.44348L9.10596 9.24285L10.7686 11.8932H11.8214ZM12.4387 7.95516V7.10231H10.4477L11.8468 4.87H10.7848L9.10596 7.5622L7.4271 4.87H6.3651L7.76424 7.10231H5.77344V7.96357L12.4401 7.95516H12.4387Z" fill="#CC8232"/>
<path d="M11.8209 11.8932L10.4052 9.6358H12.4381V8.78295H5.77148V9.6358H7.8044L6.3887 11.8932H7.44224L9.104 9.24285L10.7667 11.8932H11.8209ZM12.4381 7.95516V7.10231H10.4465L11.8456 4.87H10.7836L9.104 7.5622L7.42586 4.87H6.36386L7.763 7.10231H5.77148V7.96357L12.4381 7.95516Z" fill="#CC8232"/>
<path d="M11.819 11.8932L10.4033 9.6358H12.4362V8.78295H5.76953V9.6358H7.80245L6.38675 11.8932H7.44029L9.10277 9.24285L10.7654 11.8932H11.819ZM12.4362 7.95516V7.10231H10.4445L11.8436 4.87H10.7816L9.10277 7.5622L7.42391 4.87H6.36191L7.76105 7.10231H5.76953V7.96357L12.4362 7.95516Z" fill="#CC8232"/>
<path d="M11.817 11.8932L10.4013 9.63598H12.4337V8.78295H5.76758V9.63598H7.8005L6.3857 11.8932H7.43924L9.10082 9.24285L10.7635 11.8932H11.817ZM12.4337 7.95516V7.10231H10.4425L11.8417 4.87H10.7797L9.10082 7.5622L7.42196 4.87H6.35996L7.7591 7.10231H5.76758V7.96357L12.4337 7.95516Z" fill="#CC8232"/>
<path d="M11.8151 11.8854L10.3996 9.62798H12.4323V8.77514H5.76562V9.62798H7.79855L6.38285 11.8854H7.43639L9.09888 9.23502L10.7615 11.8854H11.8151ZM12.4323 7.94771V7.0945H10.4406L11.8395 4.86218H10.7775L9.09888 7.55438L7.42002 4.86218H6.35802L7.75716 7.0945H5.76562V7.95575L12.4323 7.94771Z" fill="#CC8232"/>
<path d="M11.8131 11.8854L10.3974 9.62798H12.4303V8.77514H5.76367V9.62798H7.79659L6.38089 11.8854H7.43443L9.09691 9.23502L10.7594 11.8854H11.8131ZM12.4303 7.94734V7.0945H10.4386L11.8378 4.86218H10.7758L9.09691 7.55438L7.41805 4.86218H6.35605L7.75519 7.0945H5.76367V7.95575L12.4303 7.94734Z" fill="#CC8232"/>
<path d="M11.8131 11.8854L10.3974 9.62798H12.4303V8.77514H5.76367V9.62798H7.79659L6.38089 11.8854H7.43443L9.09691 9.23502L10.7596 11.8854H11.8131ZM12.4303 7.94734V7.0945H10.4386L11.8378 4.86218H10.7758L9.09691 7.55438L7.41805 4.86218H6.35605L7.75519 7.0945H5.76367V7.95575L12.4303 7.94734Z" fill="#CC8232"/>
<path d="M11.8073 11.8839L10.3916 9.62725H12.4245V8.77532H5.75781V9.62817H7.79073L6.37503 11.8839H7.42857L9.09105 9.23429L10.7537 11.8839H11.8073ZM12.4245 7.94588V7.09303H10.4331L11.8319 4.86218H10.7699L9.09105 7.55365L7.41219 4.86218H6.35019L7.74951 7.09303H5.75781V7.95429L12.4245 7.94588Z" fill="#CC8232"/>
<path d="M11.6823 11.7511L10.2666 9.49444H12.2995V8.64251H5.63281V9.49535H7.66573L6.25003 11.7511H7.30357L8.96605 9.10148L10.6287 11.7511H11.6823ZM12.2995 7.81307V6.96022H10.3081L11.7069 4.72937H10.6449L8.96605 7.42084L7.28719 4.72937H6.22519L7.62451 6.96022H5.63281V7.82148L12.2995 7.81307Z" fill="#E0E0E0"/>
<path d="M11.6842 11.7526L10.2685 9.49517H12.3014V8.64233H5.63477V9.49517H7.66769L6.25199 11.7526H7.30553L8.96801 9.10221L10.6307 11.7526H11.6842ZM12.3014 7.81453V6.96169H10.3097L11.7089 4.72937H10.6469L8.96801 7.42157L7.28915 4.72937H6.22715L7.62629 6.96169H5.63477V7.82294L12.3014 7.81453Z" fill="#E0E0E0"/>
<path d="M11.6862 11.7604L10.2705 9.50298H12.3034V8.65014H5.63672V9.50298H7.66964L6.25394 11.7604H7.30748L8.96996 9.11002L10.6324 11.7604H11.6862ZM12.3034 7.82234V6.9695H10.3117L11.7108 4.73718H10.6488L8.96996 7.42938L7.2911 4.73718H6.2291L7.62824 6.9695H5.63672V7.83075L12.3034 7.82234Z" fill="#E0E0E0"/>
<path d="M11.6901 11.7604L10.2746 9.50298H12.3073V8.65014H5.64062V9.50298H7.67355L6.25785 11.7604H7.31139L8.97388 9.11002L10.6365 11.7604H11.6901ZM12.3073 7.82271V6.9695H10.3156L11.7145 4.73718H10.6525L8.97388 7.42938L7.29502 4.73718H6.23302L7.63216 6.9695H5.64062V7.83075L12.3073 7.82271Z" fill="#E0E0E0"/>
<path d="M11.692 11.7604L10.2763 9.50317H12.3087V8.65014H5.64258V9.50317H7.6755L6.2607 11.7604H7.31424L8.97582 9.11002L10.6385 11.7604H11.692ZM12.3087 7.82234V6.9695H10.3175L11.7167 4.73718H10.6547L8.97582 7.42938L7.29696 4.73718H6.23496L7.6341 6.9695H5.64258V7.83076L12.3087 7.82234Z" fill="#E0E0E0"/>
<path d="M11.692 11.7604L10.2763 9.50298H12.3092V8.65014H5.64258V9.50298H7.6755L6.2598 11.7604H7.31334L8.97582 9.11002L10.6385 11.7604H11.692ZM12.3092 7.82234V6.9695H10.3175L11.7167 4.73718H10.6547L8.97582 7.42938L7.29696 4.73718H6.23496L7.6341 6.9695H5.64258V7.83076L12.3092 7.82234Z" fill="#E0E0E0"/>
<path d="M11.694 11.7682L10.2783 9.5108H12.3112V8.65795H5.64453V9.5108H7.67745L6.26175 11.7682H7.31529L8.97705 9.11785L10.6397 11.7682H11.694ZM12.3112 7.83016V6.97731H10.3195L11.7186 4.745H10.6566L8.97705 7.4372L7.29891 4.745H6.23691L7.63605 6.97731H5.64453V7.83857L12.3112 7.83016Z" fill="#E0E0E0"/>
<path d="M11.6964 11.7682L10.2815 9.5108H12.3144V8.65795H5.64844V9.5108H7.68064L6.26494 11.7682H7.31848L8.98096 9.11785L10.6436 11.7682H11.6964ZM12.3137 7.83016V6.97731H10.3227L11.7218 4.745H10.6598L8.98096 7.4372L7.3021 4.745H6.2401L7.63924 6.97731H5.64844V7.83857L12.3151 7.83016H12.3137Z" fill="#E0E0E0"/>
<path d="M11.6979 11.7682L10.2822 9.5108H12.3151V8.65795H5.64844V9.5108H7.68136L6.26566 11.7682H7.3192L8.98168 9.11785L10.6443 11.7682H11.6979ZM12.3151 7.83016V6.97731H10.3234L11.7225 4.745H10.6605L8.98168 7.43738L7.30336 4.745H6.24136L7.6405 6.97731H5.64844V7.83857L12.3151 7.83016Z" fill="#E0E0E0"/>
<path d="M11.6998 11.7682L10.2841 9.5108H12.3171V8.65795H5.65039V9.5108H7.68331L6.26761 11.7682H7.32151L8.98363 9.11785L10.6463 11.7682H11.6998ZM12.3171 7.83016V6.97731H10.3254L11.7245 4.745H10.6625L8.98363 7.4372L7.30477 4.745H6.24277L7.64191 6.97731H5.65039V7.83784L12.3171 7.82942V7.83016Z" fill="#E0E0E0"/>
<path d="M11.6998 11.7667L10.2841 9.51007H12.3171V8.65814H5.65039V9.51098H7.68331L6.26761 11.7667H7.32115L8.98363 9.11711L10.6463 11.7667H11.6998ZM12.3171 7.8287V6.97586H10.3257L11.7245 4.745H10.6625L8.98363 7.43647L7.30477 4.745H6.24277L7.64209 6.97586H5.65039V7.8371L12.3171 7.8287Z" fill="#E0E0E0"/>
<path d="M11.7018 11.776L10.2861 9.51862H12.319V8.66577H5.65234V9.51862H7.68526L6.26956 11.776H7.3231L8.98558 9.12566L10.6482 11.776H11.7018ZM12.319 7.83798V6.98513H10.3273L11.7264 4.75281H10.6644L8.98558 7.44502L7.30672 4.75281H6.24472L7.64386 6.98513H5.65234V7.84639L12.319 7.83798Z" fill="#E0E0E0"/>
<path d="M11.7057 11.776L10.29 9.51862H12.3229V8.66577H5.65625V9.51862H7.68917L6.27347 11.776H7.32701L8.98949 9.12566L10.652 11.776H11.7057ZM12.3229 7.83798V6.98513H10.3312L11.7303 4.75281H10.6683L8.98949 7.44502L7.31063 4.75281H6.24863L7.64777 6.98513H5.65625V7.84639L12.3229 7.83798Z" fill="#E0E0E0"/>
<path d="M11.7076 11.776L10.2921 9.51862H12.3249V8.66577H5.6582V9.51862H7.69112L6.27542 11.776H7.32896L8.99144 9.12566L10.6541 11.776H11.7076ZM12.3249 7.83834V6.98513H10.3332L11.7321 4.75281H10.6701L8.99144 7.44502L7.31258 4.75281H6.25058L7.64972 6.98513H5.6582V7.84639L12.3249 7.83834Z" fill="#E0E0E0"/>
<path d="M11.7096 11.7838L10.2939 9.52661H12.3263V8.67359H5.66016V9.52661H7.69308L6.27828 11.7838H7.33182L8.9934 9.13347L10.6561 11.7838H11.7096ZM12.3263 7.84579V6.99295H10.3351L11.7343 4.76062H10.6723L8.9934 7.45283L7.31454 4.76062H6.25254L7.65168 6.99295H5.66016V7.8542L12.3263 7.84579Z" fill="#E0E0E0"/>
<path d="M11.7115 11.7838L10.2958 9.52643H12.3288V8.67359H5.66211V9.52643H7.69503L6.27933 11.7838H7.33287L8.99535 9.13347L10.658 11.7838H11.7115ZM12.3288 7.84579V6.99295H10.3371L11.7362 4.76062H10.6742L8.99535 7.45283L7.31649 4.76062H6.25449L7.65363 6.99295H5.66211V7.8542L12.3288 7.84579Z" fill="#E0E0E0"/>
<path d="M11.7115 11.7838L10.2958 9.52643H12.3288V8.67359H5.66211V9.52643H7.69503L6.27933 11.7838H7.33287L8.99463 9.13347L10.6573 11.7838H11.7115ZM12.3288 7.84579V6.99295H10.3371L11.7362 4.76062H10.6742L8.99463 7.45283L7.31649 4.76062H6.25449L7.65363 6.99295H5.66211V7.8542L12.3288 7.84579Z" fill="#E0E0E0"/>
<path d="M11.714 11.7838L10.299 9.52643H12.332V8.67359H5.66602V9.52643H7.69822L6.28252 11.7838H7.33606L8.99854 9.13347L10.6612 11.7838H11.714ZM12.3312 7.84579V6.99294H10.3403L11.7394 4.76062H10.6774L8.99854 7.45283L7.31968 4.76062H6.25768L7.65682 6.99294H5.66602V7.8542L12.3327 7.84579H12.3312Z" fill="#E0E0E0"/>
<path d="M11.7155 11.7838L10.2998 9.52643H12.3327V8.67359H5.66602V9.52643H7.69894L6.28324 11.7838H7.33678L8.99926 9.13347L10.6619 11.7838H11.7155ZM12.3327 7.84579V6.99294H10.341L11.7401 4.76062H10.6781L8.99926 7.45301L7.32094 4.76062H6.25894L7.65808 6.99294H5.66602V7.8542L12.3327 7.84579Z" fill="#E0E0E0"/>
<path d="M11.7174 11.7916L10.3017 9.53423H12.3346V8.68139H5.66797V9.53423H7.70089L6.28519 11.7916H7.33909L9.00121 9.14127L10.6639 11.7916H11.7174ZM12.3346 7.85359V7.00075H10.3429L11.7421 4.76843H10.6801L9.00121 7.46063L7.32235 4.76843H6.26035L7.65949 7.00075H5.66797V7.86127L12.3346 7.85286V7.85359Z" fill="#E0E0E0"/>
<path d="M11.7194 11.7902L10.3037 9.5335H12.3366V8.68157H5.66992V9.53442H7.70284L6.28714 11.7902H7.34068L9.00316 9.14054L10.6658 11.7902H11.7194ZM12.3366 7.85213V6.99928H10.3452L11.744 4.76843H10.682L9.00316 7.4599L7.3243 4.76843H6.2623L7.66162 6.99928H5.66992V7.86054L12.3366 7.85213Z" fill="#E0E0E0"/>
<path d="M11.7194 11.7916L10.3037 9.53423H12.3366V8.68139H5.66992V9.53423H7.70284L6.28714 11.7916H7.34068L9.00316 9.14127L10.6658 11.7916H11.7194ZM12.3366 7.85359V7.00075H10.3449L11.744 4.76843H10.682L9.00316 7.46063L7.3243 4.76843H6.2623L7.66144 7.00075H5.66992V7.862L12.3366 7.85359Z" fill="#E0E0E0"/>
<path d="M11.7252 11.7916L10.3095 9.53423H12.3424V8.68139H5.67578V9.53423H7.7087L6.293 11.7916H7.34654L9.00902 9.14127L10.6715 11.7916H11.7252ZM12.3424 7.85359V7.00075H10.3507L11.7499 4.76843H10.6879L9.00902 7.46063L7.33016 4.76843H6.26816L7.6673 7.00075H5.67578V7.862L12.3424 7.85359Z" fill="#E0E0E0"/>
<path d="M11.7252 11.7994L10.3097 9.54205H12.3424V8.68921H5.67578V9.54205H7.7087L6.293 11.7994H7.34654L9.00902 9.1491L10.6717 11.7994H11.7252ZM12.3424 7.86178V7.00856H10.3507L11.7497 4.77625H10.6877L9.00902 7.46845L7.33016 4.77625H6.26816L7.6673 7.00856H5.67578V7.86983L12.3424 7.86178Z" fill="#E0E0E0"/>
<path d="M11.7272 11.7994L10.3115 9.54223H12.3439V8.68921H5.67773V9.54223H7.71065L6.29585 11.7994H7.34939L9.01097 9.1491L10.6736 11.7994H11.7272ZM12.3439 7.86142V7.00856H10.3527L11.7518 4.77625H10.6898L9.01097 7.46845L7.33211 4.77625H6.27011L7.66925 7.00856H5.67773V7.86983L12.3439 7.86142Z" fill="#E0E0E0"/>
<path d="M11.7291 11.7994L10.3134 9.54205H12.3463V8.68921H5.67969V9.54205H7.71261L6.29691 11.7994H7.35045L9.01293 9.1491L10.6756 11.7994H11.7291ZM12.3463 7.86142V7.00856H10.3546L11.7538 4.77625H10.6918L9.01293 7.46845L7.33407 4.77625H6.27207L7.67121 7.00856H5.67969V7.86983L12.3463 7.86142Z" fill="#E0E0E0"/>
<path d="M11.7291 11.7994L10.3134 9.54205H12.3463V8.68921H5.67969V9.54205H7.71261L6.29691 11.7994H7.35045L9.01221 9.1491L10.6749 11.7994H11.7291ZM12.3463 7.86142V7.00856H10.3546L11.7538 4.77625H10.6918L9.01221 7.46845L7.33407 4.77625H6.27207L7.67121 7.00856H5.67969V7.86983L12.3463 7.86142Z" fill="#E0E0E0"/>
<path d="M11.7316 11.7994L10.3166 9.54205H12.3495V8.68921H5.68359V9.54205H7.71579L6.30009 11.7994H7.35363L9.01611 9.1491L10.6788 11.7994H11.7316ZM12.3488 7.86142V7.00856H10.3578L11.757 4.77625H10.695L9.01611 7.46845L7.33725 4.77625H6.27525L7.67439 7.00856H5.68359V7.86983L12.3503 7.86142H12.3488Z" fill="#E0E0E0"/>
<path d="M11.733 11.8072L10.3173 9.54987H12.3503V8.69702H5.68359V9.54987H7.71651L6.30081 11.8072H7.35435L9.01683 9.15691L10.6795 11.8072H11.733ZM12.3503 7.86923V7.01638H10.3586L11.7577 4.78406H10.6957L9.01683 7.47645L7.33851 4.78406H6.27651L7.67565 7.01638H5.68359V7.87764L12.3503 7.86923Z" fill="#E0E0E0"/>
<path d="M11.735 11.8072L10.3193 9.54987H12.3522V8.69702H5.68555V9.54987H7.71847L6.30277 11.8072H7.35667L9.01879 9.15691L10.6814 11.8072H11.735ZM12.3522 7.86923V7.01638H10.3605L11.7596 4.78406H10.6976L9.01879 7.47627L7.33993 4.78406H6.27793L7.67707 7.01638H5.68555V7.87691L12.3522 7.8685V7.86923Z" fill="#E0E0E0"/>
<path d="M11.7369 11.8058L10.3212 9.54914H12.3542V8.6972H5.6875V9.55005H7.72042L6.30472 11.8058H7.35826L9.02074 9.15618L10.6834 11.8058H11.7369ZM12.3542 7.86777V7.01492H10.3628L11.7616 4.78406H10.6996L9.02074 7.47554L7.34188 4.78406H6.27988L7.6792 7.01492H5.6875V7.87618L12.3542 7.86777Z" fill="#E0E0E0"/>
<path d="M11.7369 11.8151L10.3212 9.55767H12.3542V8.70483H5.6875V9.55767H7.72042L6.30472 11.8151H7.35826L9.02074 9.16471L10.6834 11.8151H11.7369ZM12.3542 7.87703V7.02419H10.3625L11.7616 4.79187H10.6996L9.02074 7.48407L7.34188 4.79187H6.27988L7.67902 7.02419H5.6875V7.88544L12.3542 7.87703Z" fill="#E0E0E0"/>
<path d="M11.7428 11.8151L10.3271 9.55767H12.36V8.70483H5.69336V9.55767H7.72628L6.31058 11.8151H7.36412L9.0266 9.16471L10.6891 11.8151H11.7428ZM12.36 7.87703V7.02418H10.3683L11.7675 4.79187H10.7055L9.0266 7.48407L7.34774 4.79187H6.28574L7.68488 7.02418H5.69336V7.88544L12.36 7.87703Z" fill="#E0E0E0"/>
<path d="M11.7428 11.8151L10.3273 9.55767H12.36V8.70483H5.69336V9.55767H7.72628L6.31058 11.8151H7.36412L9.0266 9.16471L10.6893 11.8151H11.7428ZM12.36 7.8774V7.02418H10.3683L11.7673 4.79187H10.7053L9.0266 7.48407L7.34774 4.79187H6.28574L7.68488 7.02418H5.69336V7.88544L12.36 7.8774Z" fill="#E0E0E0"/>
<path d="M11.7448 11.8151L10.3291 9.55785H12.3614V8.70483H5.69531V9.55785H7.72823L6.31343 11.8151H7.36697L9.02855 9.16471L10.6912 11.8151H11.7448ZM12.3614 7.87703V7.02419H10.3703L11.7694 4.79187H10.7074L9.02855 7.48407L7.34969 4.79187H6.28769L7.68683 7.02419H5.69531V7.88544L12.3614 7.87703Z" fill="#E0E0E0"/>
<path d="M11.7467 11.8151L10.331 9.55767H12.3639V8.70483H5.69727V9.55767H7.73019L6.31449 11.8151H7.36803L9.03051 9.16471L10.6932 11.8151H11.7467ZM12.3639 7.87703V7.02419H10.3722L11.7714 4.79187H10.7094L9.03051 7.48407L7.35165 4.79187H6.28965L7.68879 7.02419H5.69727V7.88544L12.3639 7.87703Z" fill="#E0E0E0"/>
<path d="M11.7487 11.8229L10.333 9.56548H12.3659V8.71264H5.69922V9.56548H7.73214L6.31644 11.8229H7.36998L9.03174 9.17252L10.6944 11.8229H11.7487ZM12.3659 7.88484V7.032H10.3742L11.7733 4.79968H10.7113L9.03174 7.49188L7.3536 4.79968H6.2916L7.69074 7.032H5.69922V7.89325L12.3659 7.88484Z" fill="#E0E0E0"/>
<path d="M11.7492 11.8229L10.3342 9.56548H12.3671V8.71264H5.70117V9.56548H7.73337L6.31767 11.8229H7.37121L9.03369 9.17252L10.6964 11.8229H11.7492ZM12.3664 7.88484V7.032H10.3754L11.7746 4.79968H10.7126L9.03369 7.49188L7.35483 4.79968H6.29283L7.69197 7.032H5.70117V7.89325L12.3678 7.88484H12.3664Z" fill="#E0E0E0"/>
<path d="M11.7526 11.8229L10.3369 9.56548H12.3698V8.71264H5.70312V9.56548H7.73605L6.32035 11.8229H7.37389L9.03638 9.17252L10.699 11.8229H11.7526ZM12.3698 7.88484V7.032H10.3781L11.7772 4.79968H10.7152L9.03638 7.49207L7.35805 4.79968H6.29605L7.69519 7.032H5.70312V7.89325L12.3698 7.88484Z" fill="#E0E0E0"/>
<path d="M11.7526 11.8229L10.3369 9.56548H12.3698V8.71264H5.70312V9.56548H7.73604L6.32035 11.8229H7.37425L9.03637 9.17252L10.699 11.8229H11.7526ZM12.3698 7.88484V7.032H10.3781L11.7772 4.79968H10.7152L9.03637 7.49188L7.35752 4.79968H6.29552L7.69465 7.032H5.70312V7.89252L12.3698 7.88411V7.88484Z" fill="#E0E0E0"/>
<path d="M11.7545 11.8292L10.3388 9.57257H12.3717V8.72064H5.70508V9.57348H7.738L6.3223 11.8292H7.37584L9.03832 9.17961L10.701 11.8292H11.7545ZM12.3717 7.8912V7.03836H10.3804L11.7792 4.8075H10.7172L9.03832 7.49897L7.35946 4.8075H6.29746L7.69678 7.03836H5.70508V7.8996L12.3717 7.8912Z" fill="#E0E0E0"/>
<path d="M11.7565 11.8307L10.3408 9.5733H12.3737V8.72045H5.70703V9.5733H7.73995L6.32425 11.8307H7.37779L9.04027 9.18035L10.7029 11.8307H11.7565ZM12.3737 7.89266V7.03981H10.382L11.7811 4.8075H10.7191L9.04027 7.4997L7.36141 4.8075H6.29941L7.69855 7.03981H5.70703V7.90107L12.3737 7.89266Z" fill="#E0E0E0"/>
<path d="M11.7604 11.8307L10.3447 9.5733H12.3776V8.72045H5.71094V9.5733H7.74386L6.32816 11.8307H7.3817L9.04418 9.18035L10.7067 11.8307H11.7604ZM12.3776 7.89266V7.03981H10.3859L11.785 4.8075H10.723L9.04418 7.4997L7.36532 4.8075H6.30332L7.70246 7.03981H5.71094V7.90107L12.3776 7.89266Z" fill="#E0E0E0"/>
<path d="M11.7623 11.8307L10.3468 9.5733H12.3796V8.72045H5.71289V9.5733H7.74581L6.33011 11.8307H7.38365L9.04613 9.18035L10.7088 11.8307H11.7623ZM12.3796 7.89302V7.03981H10.3879L11.7868 4.8075H10.7248L9.04613 7.4997L7.36727 4.8075H6.30527L7.70441 7.03981H5.71289V7.90107L12.3796 7.89302Z" fill="#E0E0E0"/>
<path d="M11.7643 11.8307L10.3486 9.57348H12.381V8.72045H5.71484V9.57348H7.74776L6.33296 11.8307H7.3865L9.04808 9.18035L10.7107 11.8307H11.7643ZM12.381 7.89266V7.03981H10.3898L11.7889 4.8075H10.7269L9.04808 7.4997L7.36922 4.8075H6.30722L7.70636 7.03981H5.71484V7.90107L12.381 7.89266Z" fill="#E0E0E0"/>
<path d="M11.7643 11.8385L10.3486 9.58112H12.3815V8.72827H5.71484V9.58112H7.74776L6.33206 11.8385H7.3856L9.04808 9.18816L10.7107 11.8385H11.7643ZM12.3815 7.90048V7.04763H10.3898L11.7889 4.81531H10.7269L9.04808 7.50752L7.36922 4.81531H6.30722L7.70636 7.04763H5.71484V7.90889L12.3815 7.90048Z" fill="#E0E0E0"/>
<path d="M11.7662 11.8385L10.3505 9.58112H12.3835V8.72827H5.7168V9.58112H7.74972L6.33402 11.8385H7.38756L9.04932 9.18816L10.712 11.8385H11.7662ZM12.3835 7.90048V7.04763H10.3918L11.7909 4.81531H10.7289L9.04932 7.50752L7.37118 4.81531H6.30918L7.70832 7.04763H5.7168V7.90889L12.3835 7.90048Z" fill="#E0E0E0"/>
<path d="M11.7668 11.8385L10.3518 9.58112H12.3847V8.72827H5.71875V9.58112H7.75095L6.33525 11.8385H7.38879L9.05127 9.18816L10.7139 11.8385H11.7668ZM12.384 7.90048V7.04763H10.393L11.7921 4.81531H10.7301L9.05127 7.50752L7.37241 4.81531H6.31041L7.70955 7.04763H5.71875V7.90889L12.3854 7.90048H12.384Z" fill="#E0E0E0"/>
<path d="M11.7701 11.8463L10.3544 9.58893H12.3874V8.73609H5.7207V9.58893H7.75362L6.33792 11.8463H7.39146L9.05394 9.19597L10.7166 11.8463H11.7701ZM12.3874 7.90829V7.05544H10.3957L11.7948 4.82312H10.7328L9.05394 7.51551L7.37562 4.82312H6.31362L7.71276 7.05544H5.7207V7.9167L12.3874 7.90829Z" fill="#E0E0E0"/>
<path d="M11.7701 11.8463L10.3544 9.58893H12.3874V8.73609H5.7207V9.58893H7.75362L6.33792 11.8463H7.39182L9.05394 9.19597L10.7166 11.8463H11.7701ZM12.3874 7.90829V7.05545H10.3957L11.7948 4.82312H10.7328L9.05394 7.51533L7.37508 4.82312H6.31308L7.71222 7.05545H5.7207V7.91597L12.3874 7.90756V7.90829Z" fill="#E0E0E0"/>
<path d="M11.7721 11.8448L10.3564 9.5882H12.3893V8.73627H5.72266V9.58911H7.75558L6.33988 11.8448H7.39342L9.0559 9.19524L10.7186 11.8448H11.7721ZM12.3893 7.90683V7.05398H10.398L11.7968 4.82312H10.7348L9.0559 7.5146L7.37704 4.82312H6.31504L7.71436 7.05398H5.72266V7.91524L12.3893 7.90683Z" fill="#E0E0E0"/>
<path d="M11.776 11.8463L10.3603 9.58893H12.3932V8.73609H5.72656V9.58893H7.75948L6.34378 11.8463H7.39732L9.0598 9.19597L10.7225 11.8463H11.776ZM12.3932 7.90829V7.05545H10.4015L11.8007 4.82312H10.7387L9.0598 7.51533L7.38094 4.82312H6.31894L7.71808 7.05545H5.72656V7.9167L12.3932 7.90829Z" fill="#E0E0E0"/>
<path d="M11.778 11.8463L10.3623 9.58893H12.3952V8.73609H5.72852V9.58893H7.76144L6.34574 11.8463H7.39928L9.06176 9.19597L10.7242 11.8463H11.778ZM12.3952 7.90829V7.05544H10.4035L11.8026 4.82312H10.7406L9.06176 7.51533L7.3829 4.82312H6.3209L7.72004 7.05544H5.72852V7.9167L12.3952 7.90829Z" fill="#E0E0E0"/>
<path d="M11.7799 11.8463L10.3644 9.58893H12.3971V8.73609H5.73047V9.58893H7.76339L6.34769 11.8463H7.40123L9.06371 9.19597L10.7264 11.8463H11.7799ZM12.3971 7.90866V7.05544H10.4054L11.8044 4.82312H10.7424L9.06371 7.51533L7.38485 4.82312H6.32285L7.72199 7.05544H5.73047V7.9167L12.3971 7.90866Z" fill="#E0E0E0"/>
<path d="M11.7799 11.8541L10.3642 9.59692H12.3966V8.74389H5.73047V9.59692H7.76339L6.34859 11.8541H7.40213L9.06371 9.20377L10.7264 11.8541H11.7799ZM12.3966 7.91609V7.06325H10.4054L11.8046 4.83093H10.7426L9.06371 7.52313L7.38485 4.83093H6.32285L7.72199 7.06325H5.73047V7.92451L12.3966 7.91609Z" fill="#E0E0E0"/>
<path d="M11.7819 11.8541L10.3662 9.59673H12.3991V8.74389H5.73242V9.59673H7.76534L6.34964 11.8541H7.40318L9.06566 9.20377L10.7283 11.8541H11.7819ZM12.3991 7.91609V7.06325H10.4074L11.8065 4.83093H10.7445L9.06566 7.52313L7.3868 4.83093H6.3248L7.72394 7.06325H5.73242V7.92451L12.3991 7.91609Z" fill="#E0E0E0"/>
<path d="M11.7838 11.8541L10.3681 9.59673H12.401V8.74389H5.73438V9.59673H7.76729L6.35159 11.8541H7.40514L9.0669 9.20377L10.7296 11.8541H11.7838ZM12.401 7.91609V7.06325H10.4093L11.8085 4.83093H10.7465L9.0669 7.52313L7.38876 4.83093H6.32676L7.7259 7.06325H5.73438V7.9245L12.401 7.91609Z" fill="#E0E0E0"/>
<path d="M11.7843 11.8619L10.3693 9.60455H12.4023V8.75171H5.73633V9.60455H7.76853L6.35283 11.8619H7.40637L9.06885 9.2116L10.7315 11.8619H11.7843ZM12.4015 7.92392V7.07106H10.4106L11.8097 4.83875H10.7477L9.06885 7.53095L7.38999 4.83875H6.32799L7.72713 7.07106H5.73633V7.93233L12.403 7.92392H12.4015Z" fill="#E0E0E0"/>
<path d="M11.7877 11.8619L10.372 9.60455H12.4049V8.75171H5.73828V9.60455H7.7712L6.3555 11.8619H7.40904L9.07152 9.2116L10.7342 11.8619H11.7877ZM12.4049 7.92392V7.07106H10.4132L11.8124 4.83875H10.7504L9.07152 7.53113L7.3932 4.83875H6.3312L7.73034 7.07106H5.73828V7.93233L12.4049 7.92392Z" fill="#E0E0E0"/>
<path d="M11.7897 11.8619L10.374 9.60455H12.4069V8.75171H5.74023V9.60455H7.77315L6.35745 11.8619H7.41135L9.07347 9.2116L10.7361 11.8619H11.7897ZM12.4069 7.92392V7.07106H10.4152L11.8143 4.83875H10.7523L9.07347 7.53095L7.39461 4.83875H6.33261L7.73175 7.07106H5.74023V7.93159L12.4069 7.92318V7.92392Z" fill="#E0E0E0"/>
<path d="M11.7897 11.8605L10.374 9.60382H12.4069V8.75189H5.74023V9.60473H7.77315L6.35745 11.8605H7.41099L9.07347 9.21086L10.7361 11.8605H11.7897ZM12.4069 7.92245V7.06961H10.4156L11.8143 4.83875H10.7523L9.07347 7.53022L7.39461 4.83875H6.33261L7.73193 7.06961H5.74023V7.93085L12.4069 7.92245Z" fill="#E0E0E0"/>
<path d="M11.7916 11.8619L10.3759 9.60455H12.4088V8.75171H5.74219V9.60455H7.77511L6.35941 11.8619H7.41295L9.07543 9.2116L10.7381 11.8619H11.7916ZM12.4088 7.92392V7.07106H10.4171L11.8163 4.83875H10.7543L9.07543 7.53095L7.39657 4.83875H6.33457L7.73371 7.07106H5.74219V7.93233L12.4088 7.92392Z" fill="#E0E0E0"/>
<path d="M11.7955 11.8697L10.3798 9.61237H12.4128V8.75952H5.74609V9.61237H7.77901L6.36331 11.8697H7.41685L9.07933 9.21941L10.7418 11.8697H11.7955ZM12.4128 7.93173V7.07888H10.4211L11.8202 4.84656H10.7582L9.07933 7.53877L7.40047 4.84656H6.33847L7.73761 7.07888H5.74609V7.94014L12.4128 7.93173Z" fill="#E0E0E0"/>
<path d="M11.7975 11.8697L10.382 9.61237H12.4147V8.75952H5.74805V9.61237H7.78097L6.36527 11.8697H7.41881L9.08129 9.21941L10.7439 11.8697H11.7975ZM12.4147 7.93209V7.07888H10.423L11.822 4.84656H10.76L9.08129 7.53877L7.40243 4.84656H6.34043L7.73957 7.07888H5.74805V7.94014L12.4147 7.93209Z" fill="#E0E0E0"/>
<path d="M11.7994 11.8697L10.3837 9.61255H12.4161V8.75952H5.75V9.61255H7.78292L6.36812 11.8697H7.42166L9.08324 9.21941L10.7459 11.8697H11.7994ZM12.4161 7.93173V7.07888H10.425L11.8241 4.84656H10.7621L9.08324 7.53877L7.40438 4.84656H6.34238L7.74152 7.07888H5.75V7.94014L12.4161 7.93173Z" fill="#E0E0E0"/>
<path d="M11.7994 11.8697L10.3837 9.61237H12.4167V8.75952H5.75V9.61237H7.78292L6.36722 11.8697H7.42076L9.08324 9.21941L10.7459 11.8697H11.7994ZM12.4167 7.93173V7.07888H10.425L11.8241 4.84656H10.7621L9.08324 7.53877L7.40438 4.84656H6.34238L7.74152 7.07888H5.75V7.94014L12.4167 7.93173Z" fill="#E0E0E0"/>
<path d="M11.8033 11.8776L10.3876 9.62017H12.4206V8.76733H5.75391V9.62017H7.78683L6.37113 11.8776H7.42467L9.08643 9.22721L10.7491 11.8776H11.8033ZM12.4206 7.93953V7.08669H10.4289L11.828 4.85437H10.766L9.08643 7.54657L7.40829 4.85437H6.34629L7.74543 7.08669H5.75391V7.94794L12.4206 7.93953Z" fill="#E0E0E0"/>
<path d="M11.8039 11.8776L10.3889 9.62017H12.4218V8.76733H5.75586V9.62017H7.78806L6.37236 11.8776H7.4259L9.08838 9.22721L10.751 11.8776H11.8039ZM12.4211 7.93953V7.08668H10.4301L11.8292 4.85437H10.7672L9.08838 7.54657L7.40952 4.85437H6.34752L7.74666 7.08668H5.75586V7.94794L12.4225 7.93953H12.4211Z" fill="#E0E0E0"/>
<path d="M11.8053 11.8776L10.3896 9.62017H12.4225V8.76733H5.75586V9.62017H7.78878L6.37308 11.8776H7.42662L9.0891 9.22721L10.7518 11.8776H11.8053ZM12.4225 7.93953V7.08668H10.4308L11.83 4.85437H10.768L9.0891 7.54675L7.41078 4.85437H6.34878L7.74792 7.08668H5.75586V7.94794L12.4225 7.93953Z" fill="#E0E0E0"/>
<path d="M11.8073 11.8776L10.3916 9.62017H12.4245V8.76733H5.75781V9.62017H7.79073L6.37503 11.8776H7.42893L9.09105 9.22721L10.7537 11.8776H11.8073ZM12.4245 7.93953V7.08669H10.4328L11.8319 4.85437H10.7699L9.09105 7.54657L7.41219 4.85437H6.35019L7.74933 7.08669H5.75781V7.94721L12.4245 7.9388V7.93953Z" fill="#E0E0E0"/>
<path d="M11.8073 11.8839L10.3916 9.62725H12.4245V8.77532H5.75781V9.62817H7.79073L6.37503 11.8839H7.42857L9.09105 9.23429L10.7537 11.8839H11.8073ZM12.4245 7.94588V7.09303H10.4331L11.8319 4.86218H10.7699L9.09105 7.55365L7.41219 4.86218H6.35019L7.74951 7.09303H5.75781V7.95429L12.4245 7.94588Z" fill="#E0E0E0"/>
<path d="M11.8073 11.8839L10.3916 9.62725H12.4245V8.77532H5.75781V9.62817H7.79073L6.37503 11.8839H7.42857L9.09105 9.23429L10.7537 11.8839H11.8073ZM12.4245 7.94588V7.09303H10.4331L11.8319 4.86218H10.7699L9.09105 7.55365L7.41219 4.86218H6.35019L7.74951 7.09303H5.75781V7.95429L12.4245 7.94588Z" fill="#DFC805"/>
</g>
</g>
</g>
<defs>
<clipPath id="clip0_1_65">
<rect width="18" height="16" fill="white" transform="translate(0.5 0.369995)"/>
</clipPath>
<clipPath id="clip1_1_65">
<rect width="18" height="16" fill="white" transform="translate(0.5 0.369995)"/>
</clipPath>
<clipPath id="clip2_1_65">
<rect width="18" height="16" fill="white" transform="translate(0.5 0.369995)"/>
</clipPath>
</defs>
</svg>
