<svg width="281" height="458" viewBox="0 0 281 458" fill="none" xmlns="http://www.w3.org/2000/svg">
<mask id="mask0_1_368" style="mask-type:luminance" maskUnits="userSpaceOnUse" x="0" y="0" width="281" height="458">
<path d="M280.2 0.77002H0.200012V457.77H280.2V0.77002Z" fill="white"/>
</mask>
<g mask="url(#mask0_1_368)">
<mask id="mask1_1_368" style="mask-type:luminance" maskUnits="userSpaceOnUse" x="97" y="127" width="30" height="30">
<path d="M120.543 156.771L126.12 133.428L102.777 127.851L97.1999 151.194L120.543 156.771Z" fill="white"/>
</mask>
<g mask="url(#mask1_1_368)">
<path fill-rule="evenodd" clip-rule="evenodd" d="M122.1 139.632C122.151 139.716 122.186 139.81 122.202 139.907C122.217 140.005 122.213 140.104 122.19 140.2C122.168 140.296 122.126 140.386 122.068 140.466C122.01 140.546 121.937 140.614 121.853 140.665L111.008 147.328C110.924 147.379 110.83 147.414 110.733 147.43C110.636 147.445 110.536 147.441 110.44 147.418C110.344 147.396 110.254 147.354 110.174 147.296C110.094 147.238 110.026 147.165 109.975 147.081L103.313 136.236C103.208 136.066 103.176 135.862 103.222 135.668C103.268 135.474 103.39 135.307 103.559 135.203C103.729 135.099 103.933 135.066 104.127 135.112C104.321 135.159 104.488 135.28 104.592 135.45L110.861 145.656L121.067 139.386C121.151 139.334 121.244 139.299 121.341 139.284C121.439 139.268 121.538 139.272 121.634 139.295C121.73 139.318 121.821 139.359 121.901 139.417C121.98 139.475 122.048 139.548 122.1 139.632Z" fill="white" fill-opacity="0.6"/>
</g>
<path d="M47.2717 144.929L46.3356 143.732L48.5667 141.988C49.0121 141.639 49.268 141.257 49.3343 140.839C49.4025 140.407 49.2756 139.985 48.9537 139.573C48.6647 139.203 48.2997 138.988 47.859 138.926C47.4182 138.864 46.9751 139.008 46.5297 139.356L44.2859 141.11L43.3005 139.849L45.6073 138.046C46.1619 137.613 46.738 137.345 47.3356 137.243C47.9266 137.133 48.4866 137.183 49.0157 137.392C49.5466 137.586 50.0026 137.927 50.3836 138.415C50.7844 138.927 51.0149 139.465 51.0752 140.027C51.1439 140.582 51.0503 141.129 50.7944 141.668C50.5385 142.206 50.1332 142.692 49.5785 143.126L47.2717 144.929ZM49.2026 149.452L42.3047 140.628L43.7543 139.495L50.6522 148.318L49.2026 149.452ZM54.0431 145.668L47.9591 144.25L48.9235 142.704L55.8708 144.239L54.0431 145.668ZM59.5357 141.577C58.9475 142.037 58.3054 142.315 57.6096 142.412C56.9073 142.501 56.226 142.418 55.5658 142.162C54.9141 141.9 54.3582 141.475 53.8984 140.886C53.4385 140.298 53.1633 139.66 53.0727 138.973C52.9906 138.279 53.0806 137.606 53.3428 136.954C53.5984 136.294 54.0204 135.734 54.6086 135.274C55.2053 134.808 55.8515 134.526 56.5473 134.429C57.2431 134.332 57.9169 134.414 58.5687 134.676C59.2223 134.924 59.779 135.341 60.2389 135.93C60.6987 136.518 60.973 137.163 61.0618 137.866C61.1589 138.561 61.0797 139.239 60.824 139.9C60.5618 140.551 60.1324 141.11 59.5357 141.577ZM58.4912 140.241C58.8357 139.971 59.0791 139.659 59.2214 139.304C59.3655 138.934 59.4006 138.555 59.3266 138.166C59.2611 137.77 59.0904 137.396 58.8145 137.043C58.5386 136.69 58.2198 136.438 57.8584 136.288C57.4969 136.137 57.1268 136.088 56.748 136.14C56.3627 136.184 55.9977 136.341 55.6532 136.61C55.317 136.873 55.0769 137.189 54.9328 137.559C54.7906 137.914 54.7489 138.285 54.8079 138.672C54.8752 139.053 55.0469 139.42 55.3228 139.773C55.5987 140.126 55.9165 140.385 56.2761 140.551C56.6442 140.71 57.0209 140.767 57.4062 140.723C57.7934 140.664 58.155 140.503 58.4912 140.241ZM66.4912 136.139C65.945 136.566 65.3408 136.815 64.6786 136.886C64.0248 136.951 63.3837 136.849 62.7553 136.582C62.1288 136.3 61.5855 135.865 61.1257 135.277C60.6593 134.68 60.3681 134.048 60.2524 133.381C60.1384 132.698 60.1915 132.047 60.4117 131.428C60.6338 130.794 61.0179 130.264 61.5641 129.837C62.0263 129.475 62.5127 129.258 63.0234 129.183C63.5358 129.094 64.0317 129.14 64.5112 129.32C64.9906 129.5 65.4011 129.809 65.7428 130.246L67.1026 131.986C67.4442 132.423 67.6447 132.895 67.7039 133.404C67.7716 133.906 67.7036 134.4 67.4999 134.884C67.2896 135.36 66.9534 135.778 66.4912 136.139ZM65.6933 134.651C66.2059 134.25 66.483 133.756 66.5246 133.169C66.5746 132.574 66.3893 132.008 65.9689 131.471C65.6864 131.109 65.3653 130.846 65.0057 130.68C64.646 130.514 64.2768 130.458 63.8981 130.51C63.5211 130.548 63.1604 130.701 62.8159 130.97C62.4797 131.233 62.2438 131.546 62.1081 131.91C61.9743 132.258 61.9401 132.63 62.0056 133.025C62.0795 133.414 62.2578 133.79 62.5402 134.151C62.8227 134.512 63.1438 134.776 63.5034 134.941C63.8715 135.1 64.244 135.161 64.6209 135.124C64.9997 135.072 65.3571 134.914 65.6933 134.651ZM68.2457 134.565L66.9745 132.939L66.061 131.277L64.6785 130.002L63.5157 128.514L64.9023 127.43L69.6323 133.481L68.2457 134.565ZM73.8955 130.351C73.3493 130.778 72.745 131.027 72.0829 131.098C71.4291 131.162 70.788 131.061 70.1596 130.794C69.533 130.512 68.9898 130.077 68.53 129.489C68.0635 128.892 67.7724 128.26 67.6566 127.592C67.5427 126.91 67.5958 126.259 67.816 125.64C68.038 125.006 68.4222 124.476 68.9684 124.049C69.4306 123.687 69.917 123.469 70.4276 123.395C70.9401 123.306 71.436 123.352 71.9155 123.532C72.3949 123.712 72.8054 124.021 73.147 124.458L74.5069 126.197C74.8485 126.634 75.0489 127.107 75.1082 127.616C75.1759 128.118 75.1079 128.611 74.9042 129.096C74.6939 129.571 74.3577 129.99 73.8955 130.351ZM73.0975 128.863C73.4421 128.594 73.6813 128.285 73.8152 127.936C73.9508 127.573 73.9817 127.197 73.9078 126.808C73.8339 126.419 73.6557 126.044 73.3732 125.682C73.0907 125.321 72.7696 125.057 72.41 124.892C72.0503 124.726 71.6811 124.67 71.3023 124.722C70.9254 124.759 70.5647 124.913 70.2201 125.182C69.884 125.445 69.6481 125.758 69.5124 126.121C69.3785 126.47 69.3444 126.842 69.4099 127.237C69.4838 127.626 69.662 128.001 69.9445 128.363C70.227 128.724 70.5481 128.988 70.9077 129.153C71.2758 129.312 71.6483 129.373 72.0252 129.336C72.404 129.283 72.7614 129.126 73.0975 128.863ZM77.0365 127.693L75.6499 128.777L74.3787 127.151L73.4653 125.488L72.0827 124.213L68.5549 119.701L69.9415 118.617L77.0365 127.693ZM82.2034 123.653L75.5026 115.082L76.8892 113.998L83.59 122.569L82.2034 123.653ZM77.0092 119.997L76.0238 118.736L80.3096 115.386L81.2951 116.646L77.0092 119.997ZM88.8387 118.669C88.2505 119.129 87.6085 119.408 86.9127 119.505C86.2103 119.594 85.529 119.51 84.8688 119.255C84.2171 118.992 83.6612 118.567 83.2014 117.979C82.7415 117.391 82.4663 116.753 82.3757 116.065C82.2936 115.371 82.3836 114.699 82.6458 114.047C82.9015 113.387 83.3234 112.827 83.9116 112.367C84.5083 111.9 85.1545 111.619 85.8503 111.521C86.5461 111.424 87.2199 111.507 87.8717 111.769C88.5253 112.016 89.082 112.434 89.5419 113.022C90.0018 113.61 90.276 114.256 90.3648 114.958C90.4619 115.654 90.3827 116.332 90.127 116.992C89.8648 117.644 89.4354 118.203 88.8387 118.669ZM87.7942 117.333C88.1387 117.064 88.3821 116.752 88.5244 116.397C88.6685 116.027 88.7036 115.648 88.6296 115.259C88.5641 114.863 88.3934 114.489 88.1175 114.136C87.8416 113.783 87.5229 113.531 87.1614 113.38C86.7999 113.23 86.4298 113.181 86.051 113.233C85.6657 113.277 85.3007 113.434 84.9562 113.703C84.62 113.966 84.3799 114.282 84.2358 114.652C84.0936 115.007 84.0519 115.378 84.1109 115.765C84.1782 116.146 84.3499 116.512 84.6258 116.865C84.9017 117.218 85.2195 117.478 85.5791 117.643C85.9472 117.802 86.3239 117.86 86.7092 117.816C87.0964 117.757 87.458 117.596 87.7942 117.333ZM97.7808 111.577L90.4174 107.484L91.9427 106.292L97.2155 109.4L96.7743 109.744L95.1319 103.799L96.6697 102.596L98.638 110.907L97.7808 111.577ZM97.8998 115.445L96.7528 110.107L98.638 110.907L99.4377 114.242L97.8998 115.445ZM104.958 106.068C104.37 106.528 103.728 106.807 103.032 106.904C102.33 106.992 101.648 106.909 100.988 106.653C100.336 106.391 99.7806 105.966 99.3208 105.378C98.8609 104.789 98.5857 104.152 98.4951 103.464C98.413 102.77 98.503 102.097 98.7652 101.446C99.0208 100.785 99.4428 100.225 100.031 99.7655C100.628 99.2991 101.274 99.0173 101.97 98.9202C102.666 98.823 103.339 98.9056 103.991 99.1678C104.645 99.415 105.201 99.8328 105.661 100.421C106.121 101.009 106.395 101.655 106.484 102.357C106.581 103.053 106.502 103.731 106.246 104.391C105.984 105.043 105.555 105.602 104.958 106.068ZM103.914 104.732C104.258 104.463 104.502 104.151 104.644 103.796C104.788 103.426 104.823 103.046 104.749 102.657C104.684 102.262 104.513 101.887 104.237 101.535C103.961 101.182 103.642 100.93 103.281 100.779C102.919 100.628 102.549 100.579 102.17 100.632C101.785 100.676 101.42 100.832 101.076 101.102C100.739 101.364 100.499 101.681 100.355 102.051C100.213 102.406 100.171 102.777 100.23 103.164C100.298 103.544 100.469 103.911 100.745 104.264C101.021 104.617 101.339 104.876 101.699 105.042C102.067 105.201 102.443 105.259 102.829 105.215C103.216 105.156 103.577 104.995 103.914 104.732ZM111.863 100.67C111.351 101.071 110.804 101.316 110.223 101.404C109.651 101.486 109.097 101.418 108.561 101.2C108.027 100.968 107.557 100.591 107.149 100.07L104.4 96.5531L105.787 95.4691L108.487 98.923C108.717 99.2171 108.96 99.4331 109.217 99.5709C109.475 99.6938 109.74 99.7376 110.01 99.7023C110.289 99.6604 110.558 99.5377 110.819 99.334C111.222 99.0187 111.437 98.6613 111.463 98.2617C111.491 97.8472 111.331 97.4173 110.983 96.9719L108.283 93.518L109.669 92.434L112.418 95.9509C112.832 96.4804 113.084 97.0355 113.172 97.6162C113.262 98.182 113.199 98.7327 112.981 99.2684C112.757 99.7956 112.384 100.263 111.863 100.67ZM115.886 97.3227L111.156 91.2721L112.542 90.1882L117.272 96.2387L115.886 97.3227ZM114.641 92.8731L113.975 93.0081C113.377 92.2433 113.062 91.4943 113.03 90.7609C113.001 90.0125 113.33 89.369 114.019 88.8303C114.322 88.5938 114.638 88.4349 114.967 88.3537C115.296 88.2724 115.661 88.2715 116.061 88.351L115.883 89.9933C115.682 89.961 115.494 89.9722 115.32 90.0269C115.146 90.0816 114.971 90.1779 114.795 90.3159C114.408 90.6181 114.184 90.9896 114.122 91.4304C114.061 91.8712 114.234 92.3521 114.641 92.8731ZM124.137 90.8719L117.239 82.0482L118.689 80.9149L125.587 89.7387L124.137 90.8719ZM125.133 90.0934L124.098 88.7699L129.04 84.907L130.074 86.2306L125.133 90.0934ZM122.108 86.2236L121.113 84.9504L125.625 81.4226L126.621 82.6958L122.108 86.2236ZM119.27 82.5932L118.235 81.2697L123.113 77.4561L124.148 78.7797L119.27 82.5932ZM134.009 83.3576C133.463 83.7846 132.859 84.0336 132.197 84.1044C131.543 84.1687 130.902 84.0674 130.273 83.8004C129.647 83.5185 129.104 83.0834 128.644 82.4952C128.177 81.8985 127.886 81.2664 127.77 80.5987C127.657 79.916 127.71 79.2652 127.93 78.6463C128.152 78.0124 128.536 77.4819 129.082 77.0549C129.544 76.6936 130.031 76.4758 130.541 76.4016C131.054 76.3124 131.55 76.3579 132.029 76.5383C132.509 76.7186 132.919 77.0272 133.261 77.4642L134.621 79.2037C134.962 79.6407 135.163 80.1136 135.222 80.6224C135.29 81.1246 135.222 81.6178 135.018 82.102C134.808 82.5777 134.472 82.9963 134.009 83.3576ZM133.211 81.8693C133.724 81.4685 134.001 80.9744 134.043 80.3867C134.093 79.7926 133.907 79.2265 133.487 78.6887C133.205 78.3274 132.883 78.0639 132.524 77.8982C132.164 77.7326 131.795 77.676 131.416 77.7284C131.039 77.7658 130.679 77.9192 130.334 78.1885C129.998 78.4513 129.762 78.7643 129.626 79.1277C129.492 79.476 129.458 79.848 129.524 80.2435C129.598 80.6325 129.776 81.0077 130.058 81.3691C130.341 81.7304 130.662 81.9939 131.022 82.1595C131.39 82.3186 131.762 82.3794 132.139 82.342C132.518 82.2896 132.875 82.132 133.211 81.8693ZM135.764 81.783L134.493 80.1569L133.579 78.4948L132.197 77.2198L131.034 75.7324L132.42 74.6485L137.15 80.699L135.764 81.783ZM138.781 79.424L134.051 73.3734L135.438 72.2895L140.168 78.34L138.781 79.424ZM137.537 74.9744L136.871 75.1094C136.273 74.3446 135.958 73.5956 135.926 72.8622C135.896 72.1139 136.226 71.4703 136.915 70.9316C137.218 70.6951 137.533 70.5363 137.863 70.455C138.192 70.3737 138.557 70.3728 138.957 70.4523L138.779 72.0946C138.578 72.0623 138.39 72.0736 138.216 72.1282C138.042 72.1829 137.867 72.2793 137.691 72.4172C137.304 72.7194 137.08 73.0909 137.018 73.5317C136.957 73.9725 137.13 74.4534 137.537 74.9744ZM148.154 72.097L145.424 68.6054C145.109 68.202 144.719 67.9719 144.255 67.915C143.799 67.8516 143.37 67.9775 142.966 68.2929C142.697 68.5031 142.504 68.7491 142.386 69.031C142.268 69.3129 142.232 69.6049 142.279 69.907C142.325 70.209 142.454 70.4945 142.664 70.7634L141.885 70.8846C141.524 70.4224 141.306 69.936 141.232 69.4254C141.151 68.9064 141.208 68.4081 141.404 67.9305C141.601 67.4379 141.922 67.0175 142.367 66.6693C142.821 66.3146 143.317 66.1169 143.853 66.0763C144.384 66.0273 144.894 66.1088 145.385 66.3209C145.869 66.5246 146.266 66.8239 146.574 67.2189L149.541 71.0131L148.154 72.097ZM144.007 75.3391L139.277 69.2885L140.663 68.2045L145.393 74.2551L144.007 75.3391ZM153.951 67.7681C153.346 68.2411 152.695 68.5337 151.997 68.6458C151.301 68.7429 150.623 68.6637 149.963 68.408C149.312 68.1458 148.752 67.7164 148.286 67.1197C147.82 66.5231 147.541 65.881 147.45 65.1936C147.353 64.4978 147.432 63.8273 147.685 63.1821C147.948 62.5304 148.369 61.9778 148.949 61.5245C149.512 61.0844 150.109 60.827 150.741 60.7525C151.382 60.6714 152.002 60.7625 152.6 61.0258C153.207 61.2825 153.737 61.7008 154.19 62.2806C154.269 62.3815 154.343 62.4931 154.411 62.6155C154.482 62.7229 154.554 62.8495 154.627 62.9952L149.661 66.8778L148.774 65.7433L153.022 62.4224L152.86 63.2802C152.554 62.9236 152.239 62.6685 151.916 62.515C151.593 62.3614 151.261 62.3094 150.921 62.3588C150.589 62.4018 150.255 62.5546 149.919 62.8174C149.566 63.0933 149.318 63.4087 149.176 63.7636C149.034 64.1186 148.999 64.4905 149.073 64.8795C149.141 65.2601 149.322 65.6395 149.618 66.0176C149.913 66.3958 150.249 66.6686 150.623 66.8361C150.998 67.0036 151.386 67.0587 151.788 67.0016C152.184 66.9361 152.562 66.7621 152.924 66.4796C153.235 66.2365 153.478 65.9585 153.653 65.6456C153.836 65.3262 153.938 64.9891 153.959 64.6345L155.541 64.8397C155.516 65.4142 155.363 65.9539 155.081 66.4588C154.798 66.9638 154.422 67.4002 153.951 67.7681ZM157.867 64.5036L153.137 58.453L154.524 57.369L159.254 63.4196L157.867 64.5036ZM156.623 60.054L155.957 60.1889C155.359 59.4242 155.044 58.6752 155.012 57.9418C154.982 57.1934 155.312 56.5499 156.001 56.0112C156.304 55.7747 156.62 55.6158 156.949 55.5346C157.278 55.4533 157.643 55.4524 158.043 55.5319L157.865 57.1742C157.664 57.1419 157.476 57.1531 157.302 57.2078C157.128 57.2625 156.953 57.3588 156.777 57.4968C156.39 57.799 156.166 58.1705 156.104 58.6113C156.043 59.0521 156.216 59.533 156.623 60.054ZM166.119 58.0528L159.221 49.229L160.23 48.4407L161.972 49.7597L167.569 56.9196L166.119 58.0528ZM172.233 53.2735L161.561 50.5073L160.23 48.4407L170.902 51.2069L172.233 53.2735ZM172.233 53.2735L170.58 52.068L164.894 44.7947L166.343 43.6614L173.241 52.4852L172.233 53.2735ZM175.247 50.9173L168.349 42.0935L169.799 40.9603L176.697 49.7841L175.247 50.9173ZM173.286 46.3572L172.252 45.0336L176.739 41.5256L177.774 42.8491L173.286 46.3572ZM170.379 42.6386L169.345 41.3151L174.047 37.6395L175.081 38.963L170.379 42.6386ZM184.414 43.7508L177.713 35.1791L179.163 34.0459L185.864 42.6176L184.414 43.7508ZM175.677 38.4973L174.642 37.1738L181.84 31.547L182.875 32.8706L175.677 38.4973Z" fill="white" fill-opacity="0.4"/>
<path d="M0.200012 428.852C53.2893 420.556 181.494 386.608 122.454 253.593C55.4113 102.551 195.411 64.3133 280.2 59.8521" stroke="white" stroke-opacity="0.4" stroke-linecap="round" stroke-dasharray="8 8"/>
</g>
</svg>
